<mxfile host="app.diagrams.net" modified="2023-05-12T11:28:03.610Z" agent="Mozilla/5.0 (Windows NT 10.0; Win64; x64) AppleWebKit/537.36 (KHTML, like Gecko) Chrome/113.0.0.0 Safari/537.36 Edg/113.0.1774.35" etag="3vSv64mdGGDGrcEPiUY3" version="21.2.9" type="github">
  <diagram name="Page-1" id="gdt6Ws-XXvEJzLM02o73">
    <mxGraphModel dx="3448" dy="1990" grid="1" gridSize="10" guides="1" tooltips="1" connect="1" arrows="1" fold="1" page="1" pageScale="1" pageWidth="850" pageHeight="1100" math="0" shadow="0">
      <root>
        <mxCell id="0" />
        <mxCell id="1" parent="0" />
        <mxCell id="5N7-zpOXgMY-O348T0EB-46" value="" style="rounded=1;whiteSpace=wrap;html=1;" vertex="1" parent="1">
          <mxGeometry x="650" y="50" width="1120" height="820" as="geometry" />
        </mxCell>
        <mxCell id="5N7-zpOXgMY-O348T0EB-29" style="edgeStyle=orthogonalEdgeStyle;rounded=0;orthogonalLoop=1;jettySize=auto;html=1;entryX=0.5;entryY=0;entryDx=0;entryDy=0;" edge="1" parent="1" source="5N7-zpOXgMY-O348T0EB-1" target="5N7-zpOXgMY-O348T0EB-14">
          <mxGeometry relative="1" as="geometry" />
        </mxCell>
        <mxCell id="5N7-zpOXgMY-O348T0EB-1" value="" style="shape=image;verticalLabelPosition=bottom;labelBackgroundColor=default;verticalAlign=top;aspect=fixed;imageAspect=0;image=https://about.gitlab.com/images/applications/apps/aws.png;" vertex="1" parent="1">
          <mxGeometry x="1118.27" y="130" width="150.41" height="90" as="geometry" />
        </mxCell>
        <mxCell id="5N7-zpOXgMY-O348T0EB-6" value="" style="shape=image;verticalLabelPosition=bottom;labelBackgroundColor=default;verticalAlign=top;aspect=fixed;imageAspect=0;image=https://logowik.com/content/uploads/images/vercel1868.jpg;" vertex="1" parent="1">
          <mxGeometry x="920" y="640" width="146.55" height="110" as="geometry" />
        </mxCell>
        <mxCell id="5N7-zpOXgMY-O348T0EB-7" value="" style="shape=image;verticalLabelPosition=bottom;labelBackgroundColor=default;verticalAlign=top;aspect=fixed;imageAspect=0;image=https://logowik.com/content/uploads/images/vercel1868.jpg;" vertex="1" parent="1">
          <mxGeometry x="1118.27" y="640" width="146.55" height="110" as="geometry" />
        </mxCell>
        <mxCell id="5N7-zpOXgMY-O348T0EB-8" value="" style="shape=image;verticalLabelPosition=bottom;labelBackgroundColor=default;verticalAlign=top;aspect=fixed;imageAspect=0;image=https://logowik.com/content/uploads/images/vercel1868.jpg;" vertex="1" parent="1">
          <mxGeometry x="1317.77" y="640" width="146.55" height="110" as="geometry" />
        </mxCell>
        <mxCell id="5N7-zpOXgMY-O348T0EB-14" value="Admin / Data Center" style="shape=image;verticalLabelPosition=bottom;labelBackgroundColor=default;verticalAlign=top;aspect=fixed;imageAspect=0;image=data:image/jpeg,/9j/4AAQSkZJRgABAQAAAQABAAD/4gHYSUNDX1BST0ZJTEUAAQEAAAHIbGNtcwIQAABtbnRyUkdCIFhZWiAH4gADABQACQAOAB1hY3NwTVNGVAAAAABzYXdzY3RybAAAAAAAAAAAAAAAAAAA9tYAAQAAAADTLWhhbmSdkQA9QICwPUB0LIGepSKOAAAAAAAAAAAAAAAAAAAAAAAAAAAAAAAAAAAAAAAAAAlkZXNjAAAA8AAAAF9jcHJ0AAABDAAAAAx3dHB0AAABGAAAABRyWFlaAAABLAAAABRnWFlaAAABQAAAABRiWFlaAAABVAAAABRyVFJDAAABaAAAAGBnVFJDAAABaAAAAGBiVFJDAAABaAAAAGBkZXNjAAAAAAAAAAV1UkdCAAAAAAAAAAAAAAAAdGV4dAAAAABDQzAAWFlaIAAAAAAAAPNUAAEAAAABFslYWVogAAAAAAAAb6AAADjyAAADj1hZWiAAAAAAAABilgAAt4kAABjaWFlaIAAAAAAAACSgAAAPhQAAtsRjdXJ2AAAAAAAAACoAAAB8APgBnAJ1A4MEyQZOCBIKGAxiDvQRzxT2GGocLiBDJKwpai5+M+s5sz/WRldNNlR2XBdkHWyGdVZ+jYgskjacq6eMstu+mcrH12Xkd/H5////2wBDAAEBAQEBAQEBAQEBAQEBAQEBAQEBAQEBAQEBAQEBAQEBAQEBAQEBAQEBAQEBAQEBAQEBAQEBAQEBAQEBAQEBAQH/2wBDAQEBAQEBAQEBAQEBAQEBAQEBAQEBAQEBAQEBAQEBAQEBAQEBAQEBAQEBAQEBAQEBAQEBAQEBAQEBAQEBAQEBAQH/wAARCAIAAgADASIAAhEBAxEB/8QAHwAAAQUBAQEBAQEAAAAAAAAAAAECAwQFBgcICQoL/8QAtRAAAgEDAwIEAwUFBAQAAAF9AQIDAAQRBRIhMUEGE1FhByJxFDKBkaEII0KxwRVS0fAkM2JyggkKFhcYGRolJicoKSo0NTY3ODk6Q0RFRkdISUpTVFVWV1hZWmNkZWZnaGlqc3R1dnd4eXqDhIWGh4iJipKTlJWWl5iZmqKjpKWmp6ipqrKztLW2t7i5usLDxMXGx8jJytLT1NXW19jZ2uHi4+Tl5ufo6erx8vP09fb3+Pn6/8QAHwEAAwEBAQEBAQEBAQAAAAAAAAECAwQFBgcICQoL/8QAtREAAgECBAQDBAcFBAQAAQJ3AAECAxEEBSExBhJBUQdhcRMiMoEIFEKRobHBCSMzUvAVYnLRChYkNOEl8RcYGRomJygpKjU2Nzg5OkNERUZHSElKU1RVVldYWVpjZGVmZ2hpanN0dXZ3eHl6goOEhYaHiImKkpOUlZaXmJmaoqOkpaanqKmqsrO0tba3uLm6wsPExcbHyMnK0tPU1dbX2Nna4uPk5ebn6Onq8vP09fb3+Pn6/9oADAMBAAIRAxEAPwD/AD/6KKKACiiigAooooAKKKKACiiigAooooAKKKKACiiigAooooAKKKKACiiigAooooAKKKKACiiigAooooAKKKKACiiigAooooAKKKKACiiigAooooAKKKKACiiigAooooAKKKKACiiigAooooAKKKKACiiigAooooAKKKKACiiigAooooAKKKKACiiigAooooAKKKKACiiigAooooAKKKKACiiigAooooAKKKKACiiigAooooAKKKKACiiigAooooAKKKKACiiigAooooAKKKKACiiigAooooAKKKKACiiigAooooAKKKKACiiigAooooAKKKKACiiigAooooAKKKKACiiigAooooAKKKKACiiigAooooAKKKKACiiigAooooAKKKKACiiigAooooAKKKKACiiigAooooAKKKKACiiigAooooAKKKKACiiigAooooAKKKKACiiigAooooAKKKKACiiigAooooAKKKKACiiigAooooAKKKKACiiigAooooAKKKKACiiigAooooAKKKKACiiigAooooAKKKKACiiigAooooAKKKKACiiigAooooAKKKKACiiigAooooAKKKKACiiigAooooAKKKKACiiigAooooAKKKKACiiigAooooAKKKKACiiigAooooAKKKKACiiigAooooAKKKKACiiigAooooAKKKKACiiigAooooAKKKKACiiigAooooAKKKKACiiigAooooAKKKKACiiigAoorrdF8HeL/EiGXQfDHiTXILfkvomiarqqLn/r2icL052EH1GOaAOSor0j/hUXxR/6Jn8RP/CI8Rf/ACJR/wAKi+KP/RM/iJ/4RHiL/wCRKAPN6K9I/wCFRfFH/omfxE/8IjxF/wDIlH/Covij/wBEz+In/hEeIv8A5EoA83or0j/hUXxR/wCiZ/ET/wAIjxF/8iUf8Ki+KP8A0TP4if8AhEeIv/kSgDzeivSP+FRfFH/omfxE/wDCI8Rf/IlH/Covij/0TP4if+ER4i/+RKAPN6K9I/4VF8Uf+iZ/ET/wiPEX/wAiUf8ACovij/0TP4if+ER4i/8AkSgDzeivSP8AhUXxR/6Jn8RP/CI8Rf8AyJR/wqL4o/8ARM/iJ/4RHiL/AORKAPN6K6zWvB3ivw2Yf+Eg8L69oQuASp1rRdV0wNk+k8aFh3AUbv8AZrk6ACiiigAooooAKKKKACiiigAooooAKKKKACiiigAooooAKKKKACiiigAooooAKKKKACiiigAooooAKKKKACiiigAooooAKKKKACiiigAooooAKKKKACiiigAooooAKKKKAPtz/gnd+yxcftu/tufs0/spLf3Omaf8ZPijo3hjXNYtPMMmk+E4hNrfjrWYWBUmSDwjoeuSxkkANGhIPl7G/wBpX9nj9m34I/st/DDwv8GPgL8OPDPw5+HHgzTtO0/Q9B8N6LDp6sYkgj/tfWpY+df8QzGJp5/Es/m3TyyTAuIkKV/jdf8ABJL9qDw3+x3/AMFH/wBkP9o/x072/gH4dfGDQl8b6hLvddI8G+JIZ/AfiXXDnCsvhrw34knughO4CNghIcgf7T2g+I9D8W6Ho3ifw1q2ma74e8QafpmtaJrOlXK6jpuo6TrUYfQ9Y0qceZCYpo3SVCgEZQswJIFAHS/Z7f8A54wfkv8A8TR9nt/+eMH5L/8AE1ZooArfZ7f/AJ4wfkv/AMTR9nt/+eMH5L/8TVmigCt9nt/+eMH5L/8AE0fZ7f8A54wfkv8A8TVmigCt9nt/+eMH5L/8TR9nt/8AnjB+S/8AxNWaKAK32e3/AOeMH5L/APE0fZ7f/njB+S//ABNWaKAK32e3/wCeMH5L/wDE0fZ7f/njB+S//E1ZooA+Zf2nv2U/gH+158IfFXwR/aE+Hnh74h/D/wAY6Tqljf2GrafGdRsDLCyjW/D2uOrz+GvEcDGOWLxLZvFdb1jXc8TlG/xUf23f2cdS/Y//AGu/2jP2YtVv21O5+B/xd8YfDyy1je8g1HSdC1mRdB1gE8q134dOkzGNeF88hCAoFf7ifi7xn4W+HvhfxB438aeINL8M+EPCmjatr/ifxLrV1HpukaJo+gxPLresapOzJGkMEaGRiFPC4QgsAf8AEq/4KX/tHaJ+15+3v+1t+0l4aaQ+Ffiv8bvGninwnG4GR4QXVjofhdjhVw0nhrSdEbHA+Y8DGAAfCNFFFABRRRQAUUUUAFFFFABRRRQAUUUUAFFFFABRRRQAUUUUAFFFFABRRRQAUUUUAFFFFABRRRQAUUUUAFFFFABRRRQAUUUUAFFFFABRRRQAUUUUAFFFFABRRRQAUUUUAFfpH8BP+CuH/BSf9mXwHY/Cn4F/tl/G34d/DrTd66H4PsPFa6jofh9nc7xoVtr8d4ugR4O1UtTBGEGNpWvzcooA/Yz/AIiAP+CyX/SQf46f+B3h/wD+Zmj/AIiAP+CyX/SQf46f+B3h/wD+ZmvxzooA/Yz/AIiAP+CyX/SQf46f+B3h/wD+Zmj/AIiAP+CyX/SQf46f+B3h/wD+ZmvxzooA/Yz/AIiAP+CyX/SQf46f+B3h/wD+Zmj/AIiAP+CyX/SQf46f+B3h/wD+ZmvxzooA/Yz/AIiAP+CyX/SQf46f+B3h/wD+Zmj/AIiAP+CyX/SQf46f+B3h/wD+ZmvxzooA/Yz/AIiAP+CyX/SQf46f+B3h/wD+Zmj/AIiAP+CyX/SQf46f+B3h/wD+ZmvxzooA/Yz/AIiAP+CyX/SQf46f+B3h/wD+Zmj/AIiAP+CyX/SQf46f+B3h/wD+ZmvxzooA/Rn9ob/gq3/wUX/au8EXPwx/aF/bG+N/xP8Ah/dNEuoeDtb8WjTfC+pskmc65oXh6G2h8QRkHAFykoTLHDA1+c1FFABRRRQAUUUUAFFFFABRRRQAUUUUAFFFFABRRRQAUUUUAFFFFABRRRQAUUUUAFFFFABRRRQAUUUUAFFFFABRRRQAUUUUAFFFFABRRRQAUUUUAFFFFABRRRQAUUV+yX/BGH/gld42/wCCrf7Wui/CyOXVfC/wM8CDSfF3x++IVtbsf7A8IebuTw9pJUTFfFHjSSKTw74NZlaOEE3cypHBIVAK3/BLP/gjD+19/wAFWPGt1B8I9BtvBHwW8Pagtj8Qf2gPGGmyJ4E8PSGRT/ZOgBMSeK/E5af/AJFrwsxeKE+ddSQwJuH9+P7In/BqH/wS2/Z30bT7j4t+DfE/7WXxLgsv+Jt4q+Lms6xp3hBNVYBvP0P4b+Gri18KeSHYgw+LW8buBgjG7av9B3wL+Bfwi/Zr+Ffgz4G/A3wZo/w7+GfgDSl0jwx4a0W2jXT9PVWXczMf3k2tySF55ZJWeV2kfPybET3CgD8yLP8A4I0f8Eq7GHyLD9gH9la2t/8Anmvwf8Pkf99GJT6/SrP/AA58/wCCWX/SPz9lX/wz3gv/AOMV+l1FAH5o/wDDnz/gll/0j8/ZV/8ADPeC/wD4xR/w58/4JZf9I/P2Vf8Awz3gv/4xX6XUUAfmj/w58/4JZf8ASPz9lX/wz3gv/wCMUf8ADnz/AIJZf9I/P2Vf/DPeC/8A4xX6XUUAfmj/AMOfP+CWX/SPz9lX/wAM94L/APjFH/Dnz/gll/0j8/ZV/wDDPeC//jFfpdRQB+aP/Dnz/gll/wBI/P2Vf/DPeC//AIxR/wAOfP8Agll/0j8/ZV/8M94L/wDjFfpdRQB+aP8Aw58/4JZf9I/P2Vf/AAz3gv8A+MUf8OfP+CWX/SPz9lX/AMM94L/+MV+l1FAH5o/8OfP+CWX/AEj8/ZV/8M94L/8AjFH/AA58/wCCWX/SPz9lX/wz3gv/AOMV+l1FAH5o/wDDnz/gll/0j8/ZV/8ADPeC/wD4xVW7/wCCNH/BKu9gnt7j9gL9ld4LoHejfB/w8M57sVhU5/3dg9QRmv04ooA/mJ/a8/4NR/8Aglr+0hoWozfCXwPr37JnxLmjLWviv4R61rGp+EJdTXkya38NvE11deFxBnI8rwiPBJYkDk/K38A3/BUn/giz+19/wSt8Y2//AAt7QYvHPwV8R6kbL4e/H/wdYTf8IF4hkMu0aV4gjlLy/DzxOzLJt8MeJ8NJEGntZp4iTX+zfXi3xz+Bnwt/aT+FfjX4I/GzwXpHxD+GXxA0l9H8U+GNbtWksL/TXZsFTtLxavE4SSKWJonR40GFTejgH+DhRX7I/wDBaD/glf42/wCCUn7W2tfCqW61bxT8DPHp1jxr8AfH10HJ8QeEWkZZfD+sqwhZvFHgyWWPw94xcKsU2UvIcxzxs343UAFFFFABRRRQAUUUUAFFFFABRRRQAUUUUAFFFFABRRRQAUUUUAFFFFABRRRQAUUUUAFFFFABRRRQAUUUUAFFFFABRRRQAUUUUAFFFFABRRRQAV/sNf8ABvf/AME87D/gn5/wTk+EOiavpVvB8afjrYaV8dfjjfPubVI9b8TaKJ/DXggEho1XwN4WbSPDRjcqWum8SsMNIHP+YJ/wSY/Zsg/az/4KR/scfAHU7Vrnw/44+N/hC88VWoJ2Hwd4XEvj/wATJ1BOfC3h7WxjGCN2fvV/tmwwwW0Igtx9ngtuAF4GMEnk5OOcnOc8Y7UAXK/lf/4Kz/8AB0B+zZ+wB4z8Sfs//s/eE7b9qT9ozw6WsvFlrBrraR8Lfh3qv3P7E8Q+IYkln8ReIQqlpPDXhL5rfeourqF2CN9Df8HHX/BTHWP+CcP7BOpN8M9ZbTf2hv2jb/WPhL8Hbm2dBqXhHTm0dZPiB8QIfMzn/hDfDbJDav8AMYPG/iLwo5HlKzD/ACN77Ub/AFW9ub+/ubi/1K9vDd3l3dM0l/d30jNuLOWeRiXYn1DHsdiAA/rV1f8A4PMf+Cnt5qNxNpfwx/ZJ0XTn4srP/hXXjzUzYgYAPmTfFRXcgcfMcgcDjgZf/EZR/wAFTv8AoRf2Uv8Aw3Hjj/56VfyUUUAf1r/8RlH/AAVO/wChF/ZS/wDDceOP/npUf8RlH/BU7/oRf2Uv/DceOP8A56VfyUUUAf1r/wDEZR/wVO/6EX9lL/w3Hjj/AOelR/xGUf8ABU7/AKEX9lL/AMNx44/+elX8lFFAH9a//EZR/wAFTv8AoRf2Uv8Aw3Hjj/56VH/EZR/wVO/6EX9lL/w3Hjj/AOelX8lFFAH9a/8AxGUf8FTv+hF/ZS/8Nx44/wDnpUf8RlH/AAVO/wChF/ZS/wDDceOP/npV/JRRQB/Wv/xGUf8ABU7/AKEX9lL/AMNx44/+elR/xGUf8FTv+hF/ZS/8Nx44/wDnpV/JRRQB/Wv/AMRlH/BU7/oRf2Uv/DceOP8A56VH/EZR/wAFTv8AoRf2Uv8Aw3Hjj/56VfyUUUAf1r/8RlH/AAVO/wChF/ZS/wDDceOP/npVqaR/weY/8FPbPUbebVPhj+yTrWnJxe2f/CuvHmmG+ByCfMh+KjOhI4+U5I4PHB/kUooA/wBVj/gkx/wdAfs2ft/+M/Df7P8A+0D4Ttv2W/2jPERWy8J2s+utq/wt+Imq/c/sTw94hlSKfw74hKsGj8NeLfmuNjC1upnUov8AVBX+A5Zahf6Ve22o2Fzc2Go2d39qsru1uWiv7O9jYFXV0KyqwdASdqtnALn5kb/XJ/4Nxf8AgpjrH/BR79gnTW+JmstqX7Q37OV/o/wl+MVzcuh1Lxdpy6O0nw/+IE3l4x/wmXhtXhun+Uz+N/DvitwPKZWIB3H/AAcL/wDBPS1/4KD/APBOj4u6LoukW+p/Gb4CWmq/HL4H3kSgal/bPhnQnm8S+Cw5JDR+M/DH9s22wYIvYvDZ8tgjOP8AHpr/AH657eG4imgniE9vcj5lxkMGAyDyCOeQciv8TL/grN+zhb/sl/8ABR39sX4A6bbNbeHPA/xv8XXXhS1OQqeDvE0ieLPDAHox8M67o5PsR6UAfnDRRRQAUUUUAFFFFABRRRQAUUUUAFFFFABRRRQAUUUUAFFFFABRRRQAUUUUAFFFFABRRRQAUUUUAFFFFABRRRQAUUUUAFFFFABRRRQAUUUUAf0//wDBo14Nt/E//BYbwXq1xb+fH4C+A3xu8XWIJwF1U6NoHhdSD2KjxM5B6Zx1Ff6vNf5Zv/Bm/wD8pWvFH/ZqvxZ/9ST4dV/qZUAf5jP/AAeafGbWfGn/AAUU+DHwPVxJ4c+Cf7OOk63bWiYUDXPiN4g8Q65r0jHHJHh/w94aXJJJUYGRjH8dtf1A/wDB3d/ymP8AGv8A2QD4Gf8Apj1yv5fqACiv7o/+Cdn/AAZ9r8cP2efB3xg/bR+Pvjn4N+MfiToGm+K9A+Evw78LaHd6n4Q0jxBDA+hjxzr/AInjeP8A4SPE8bzeGbOCSOB5Ghe4kuI5kr9Av+IJj9iz/o7v9pn/AMEvwq/+ZWgD/Naor/Sl/wCIJj9iz/o7v9pn/wAEvwq/+ZWj/iCY/Ys/6O7/AGmf/BL8Kv8A5laAP81qiv8ASl/4gmP2LP8Ao7v9pn/wS/Cr/wCZWj/iCY/Ys/6O7/aZ/wDBL8Kv/mVoA/zWqK/0pf8AiCY/Ys/6O7/aZ/8ABL8Kv/mVo/4gmP2LP+ju/wBpn/wS/Cr/AOZWgD/Naor/AEpf+IJj9iz/AKO7/aZ/8Evwq/8AmVo/4gmP2LP+ju/2mf8AwS/Cr/5laAP81qiv9KX/AIgmP2LP+ju/2mf/AAS/Cr/5laP+IJj9iz/o7v8AaZ/8Evwq/wDmVoA/zWqK/wBKX/iCY/Ys/wCju/2mf/BL8Kv/AJlaP+IJj9iz/o7v9pn/AMEvwq/+ZWgD/Naor/Sl/wCIJj9iz/o7v9pn/wAEvwq/+ZWvza/4KYf8Gi17+zN+zj4v+PH7G/x08YfGrVvhbomoeK/HPwq8f+F9FsPEviDwv4dtpZde1fwF4g8Lq4l1+BIWnPhWWxQXCKIoZxK/kqAfw/1/Yl/wZlfGTWfBX/BRP40fBcyzR+G/jH+zhq2u3FoQGDa78OPEPh/WvD8nOSS3h/XvEYB4JUgDg1/HbX9QP/Boj/ymP8Ff9kA+Of8A6Y9DoA/1d6/yhv8Ag7l8FQeFv+CwvjfVbSErH4++BvwQ8WXgBBLar/Y2veFycjruXw0rfQY5r/V5r/LN/wCDyD/lK14X/wCzVfhN/wCpJ8RaAP5OaKKKACiiigAooooAKKKKACiiigAooooAKKKKACiiigAooooAKKKKACiiigAooooAKKKKACiiigAooooAKKKKACiiigAooooAKKKKACiiigD+sb/gzf8A+UrXij/s1X4s/wDqSfDqv9TKv8s3/gzf/wCUrXij/s1X4s/+pJ8Oq/1MqAP8oj/g7u/5TH+Nf+yAfAz/ANMeuV+FH7FHhnSfFn7YX7KnhLxDbG50XxN+0X8D9A1qzU4N7pev/EDw5FLEcH7pifDA8EOoPG4H91/+Du7/AJTH+Nf+yAfAz/0x65X4ffsBf8n1fsX/APZ0nwH/APVq+GaAP9zKKFIY1iiAWJQQB3Gc9O1TUV+VP/BUL/grF+z3/wAEnfh38MfiN+0R4b+IvirQ/iv421LwN4eg+GWi6Lq+p6fquh6A3iOQa2Nd8R2Mewwqoilikdg7szKuxTMAfqtRX8hP/EZp/wAE0f8Aolf7VX/hGeCP/mxo/wCIzT/gmj/0Sv8Aaq/8IzwR/wDNjQB/XtRX8hP/ABGaf8E0f+iV/tVf+EZ4I/8Amxo/4jNP+CaP/RK/2qv/AAjPBH/zY0Af17UV/IT/AMRmn/BNH/olf7VX/hGeCP8A5saP+IzT/gmj/wBEr/aq/wDCM8Ef/NjQB/XtRX8hP/EZp/wTR/6JX+1V/wCEZ4I/+bGj/iM0/wCCaP8A0Sv9qr/wjPBH/wA2NAH9e1FfyE/8Rmn/AATR/wCiV/tVf+EZ4I/+bGj/AIjNP+CaP/RK/wBqr/wjPBH/AM2NAH9e1FfyE/8AEZp/wTR/6JX+1V/4Rngj/wCbGj/iM0/4Jo/9Er/aq/8ACM8Ef/NjQB/XtWdeWFtqlncWN/Etxa3dqbW8tWwVdXHzAnI4OTg59D61+aH/AATG/wCCovwL/wCCrfwg8d/GP4A+HviF4Z8N+AfiM3w11u0+INho2lawNaXw54d8R/JH4e8SXihTFr6gkyLyDtDF9tfqBQB/g7ftD6PY+GPj78cfC2kQtBo3hz4wfEnw/p1qCfl0vQvG2v28MZPokcK4x90DA+6c/wBCX/Boj/ymP8Ff9kA+Of8A6Y9Dr+fz9q3/AJOh/aR/7L18Xf8A1YHiKv6A/wDg0R/5TH+Cv+yAfHP/ANMeh0Af6u9f5Zv/AAeQf8pWvC//AGar8Jv/AFJPiLX+plX+Wb/weQf8pWvC/wD2ar8Jv/Uk+ItAH8nNFFFABRRRQAUUUUAFFFFABRRRQAUUUUAFFFFABRRRQAUUUUAFFFFABRRRQAUUUUAFFFFABRRRQAUUUUAFFFFABRRRQAUUUUAFFFFABRRRQB/WN/wZv/8AKVrxR/2ar8Wf/Uk+HVf6mVf5Zv8AwZv/APKVrxR/2ar8Wf8A1JPh1X+plQB/lEf8Hd3/ACmP8a/9kA+Bn/pj1yvw+/YC/wCT6v2L/wDs6T4D/wDq1fDNfuD/AMHd3/KY/wAa/wDZAPgZ/wCmPXK/D79gL/k+r9i//s6T4D/+rV8M0Af7nFfxIf8AB7j/AMmnfsU/9nD+NP8A1XUlf231/Eh/we4/8mnfsU/9nD+NP/VdSUAf5u1FFFABRRRQAUUUUAFFFFABRRRQAUUUUAf6Y3/BlJ/yj8/ah/7O21L/ANVH8Na/syr+M3/gyk/5R+ftQ/8AZ22pf+qj+Gtf2ZUAf4Qv7Vv/ACdD+0j/ANl6+Lv/AKsDxFX9Af8AwaI/8pj/AAV/2QD45/8Apj0Ov5/P2rf+Tof2kf8AsvXxd/8AVgeIq/oD/wCDRH/lMf4K/wCyAfHP/wBMeh0Af6u9f5Zv/B5B/wApWvC//Zqvwm/9ST4i1/qZV/lm/wDB5B/yla8L/wDZqvwm/wDUk+ItAH8nNFFFABRRRQAUUUUAFFFFABRRRQAUUUUAFFFFABRRRQAUUUUAFFFFABRRRQAUUUUAFFFFABRRRQAUUUUAFFFFABRRRQAUUUUAFFFFABRRRQB/WN/wZv8A/KVrxR/2ar8Wf/Uk+HVf6mVf5Zv/AAZv/wDKVrxR/wBmq/Fn/wBST4dV/qZUAf5RH/B3d/ymP8a/9kA+Bn/pj1yvw+/YC/5Pq/Yv/wCzpPgP/wCrV8M1+4P/AAd3f8pj/Gv/AGQD4Gf+mPXK/D79gL/k+r9i/wD7Ok+A/wD6tXwzQB/ucV/Eh/we4/8AJp37FP8A2cP40/8AVdSV/bfX8SH/AAe4/wDJp37FP/Zw/jT/ANV1JQB/m7UUUUAFFFFABRRRQAUUUUAFFFFABRRRQB/pjf8ABlJ/yj8/ah/7O21L/wBVH8Na/syr+M3/AIMpP+Ufn7UP/Z22pf8Aqo/hrX9mVAH+EL+1b/ydD+0j/wBl6+Lv/qwPEVf0B/8ABoj/AMpj/BX/AGQD45/+mPQ6/n8/at/5Oh/aR/7L18Xf/VgeIq/oD/4NEf8AlMf4K/7IB8c//THodAH+rvX+Wb/weQf8pWvC/wD2ar8Jv/Uk+Itf6mVf5Zv/AAeQf8pWvC//AGar8Jv/AFJPiLQB/JzRRRQAUUUUAFFFFABRRRQAUUUUAFFFFABRRRQAUUUUAFFFFABRRRQAUUUUAFFFFABRRRQAUUUUAFFFFABRRRQAUUUUAFFFFABRRRQAUUUUAfvX/wAG8v8AwUD/AGeP+Ca/7c2t/tAftMXXjK08B3/wT8Y+AbM+CvDR8UasNX8R654YlRjoqSxscjQW3sJFICne2DX9uv8AxF//APBH7/oMftHf+GQP/wA1Vf5T9FAH7a/8F9v27PgZ/wAFGf8AgoT4m/aT/ZxuPFV58NNU+Fvw28K2UnjDQ/8AhGtWGseGNDli1xjpDySsq75NjSGRxK2GByFFfmt+yp8RPD/wi/af/Z4+K/i9rxvCnwz+Nvwm8f8AiprS1S9vv7E8KeOfD/iDW9iPgs/k20yKGO9nZY13SkB/nOigD/Vm/wCIv/8A4I+f9Bn9o7/wyTf/ADV1/NR/wcl/8FrP2K/+CpHwL/Zx8A/stal8TbrxF8Mfi74q8W+Jm8eeCH8J2K6Prvgn/hHY/JkkuJvNkEpAG1d6xiZiDtDx/wAeFFABRRRQAUUUUAFFFFABRRRQAUUUUAFFFFAH9nv/AAbh/wDBcX9h3/gl9+yt8avhD+07qXxSsvGXj34+P8SNGHgP4ev4p05vDT+A/C/hss1wk9v5TrN4cld45FEpSRH3xqC8n9FP/EX/AP8ABHz/AKDP7R3/AIZJv/mrr/KZooA9l+OfjDTPHvxs+MPxA8Pm5TQfG/xT+IfizQTc83w0nxJ4013X9GDjHEwjliFwRyJC4xnaa/VD/ggT+3Z8DP8AgnN/wUJ8NftJ/tHXHiqz+Gml/C34k+Fb2Twfof8AwkurHWPE+hxRaGw0hJImZd8exZBIgibLE5LCvxKooA/1YP8AiL//AOCP3/QY/aO/8Mgf/mqr+Ir/AIOGv+Cgf7PH/BSj9ubRP2gP2Z7rxld+A7D4J+DvAN4fGvho+F9WOr+HNc8Tyuw0V5ZGGBry7GMjEhhsbAr8FKKACiiigAooooAKKKKACiiigAooooAKKKKACiiigAooooAKKKKACiiigAooooAKKKKACiiigAooooAKKKKAP2W/4Ib/APBPn4U/8FL/ANuzRP2YfjJ4h8Y+GPBOp/Cz4j+NzrHgG+0XT/Ew1fwtBA+kCNtejngkhkkuGaSNYZWAWIsNsjs39qf/ABBd/wDBOT/otv7Uv/g98Cf/ADH1/M9/waHf8pjvCX/Zuvxx/wDTJ4fr/VwoA/xNv+CuP7H/AIC/YH/4KDftBfsofC7WfEmu+BfhRrHhLT9G1Txje6Lc+J7pfEPgHwx4rlbVpNASFGAbX3RT5Fuzp8zRoXC1+aFfu/8A8HLf/Ka39tz/ALD/AMN//VR/D2vwgoA/o2/4N5v+CSH7P/8AwVn+MH7Rfw++P3jL4keENL+D3w38J+LNCufhnf6HpmoXuq+I/EsmgSQaqfEPhy+EkUQjMsZUo7yl427TN/Vn/wAQXf8AwTk/6Lb+1L/4PfAn/wAx9fk1/wAGRX/J0X7b3/ZAfhz/AOp+9f6OlAH+FF+158J9B+AX7Vv7SPwQ8M3+p6j4Y+D3xy+Lnwx0K/1hSNV1DSPh5461/wAL6P8A2zGCEM0kehRmQAZxg4XCFfmSvuP/AIKY/wDKRL9uv/s7f9of/wBWz4nr4coAKKKKACiiigAooooAKKKKACiiigAooooAKKKKACiiigAooooAKKKKACiiigAooooAKKKKACiiigAooooAKKKKACiiigAooooAKKKKACiiigAooooAKKKKACiiigAooooAKKKKACiiigAooooAKKKKAP6iP+DQ7/lMd4S/7N1+OP8A6ZPD9f6uFf5R/wDwaHf8pjvCX/Zuvxx/9Mnh+v8AVwoA/wAeb/g5b/5TW/tuf9h/4b/+qj+HtfhBX+oD/wAFH/8Ag1Q8Nf8ABQr9s/41/tg6l+2hr/wru/i/qHhW/PgKy+Bmi+Ml0BfDvgfw74USM62/xU8GeaHXw8sozakgSnMr7Rt+JP8AiB68Hf8ASRLxJ/4jTo3/AM92gD5d/wCDIr/k6L9t7/sgPw5/9T96/wBHSv50P+CLf/BAjQ/+CO/xO+NvxF0j9pjV/jyvxj8DeFvAzaVffC2DwAmgtoOvt4gOsAx+MvGZlleRtqxymOJNxYyIyojf0X0Af4dX/BTH/lIl+3X/ANnb/tD/APq2fE9fVX/BE7/gmt4N/wCCqv7ZVz+zH45+KHiP4TaPZfCDxl8SP+Eo8MaHpHiPUxfeFtZ8NwDRho2vyxxSQ3B8QymR1LNutid5WR1fkv2ivg1D+0R/wWk+NvwAl8R/8Inb/Gz/AIKMfEb4U/8ACT/2edQOif8ACxPj/rXhwaz/AGIrK8gibW1nVAR5bBnDbhx/oE/8Eif+DbDw/wD8EpP2sbn9qfR/2tdc+N91dfCzxf8ADOTwZf8Awa0nwGVHifWPDtw2tLrI+KPjUsY18P7xAsMJbzmXfvAjQA+Af+IIP9nL/o+741/+Gm8Ef/NLR/xBB/s5f9H3fGv/AMNN4I/+aWv0u/4Li/8ABfnXv+CPPxX+Bvwx0f8AZi0v45w/F74ea145Oq3/AMU5fAB0RtB8RHw8+kKsfg3xlFIWCiRpSFUFysZZy9fhx/xHC+Mf+kdvhv8A8SW1n/50VAH0z/xBB/s5f9H3fGv/AMNN4I/+aWv5+/8Agvd/wQn+F3/BIDwV+zx4s+H/AMe/HPxom+Nfiz4g+Hr+y8ZeFdD8Of2AvhLQvDmtiWMeH55gxkGv7ijEDg/u0QGv6Y/+CY3/AAdU+KP+Chf7bnwV/Y/v/wBjHQvhfb/Fe98V2J8eaf8AHLVvFzaIPDvgXxH4q/5Asvwp8HI4k/4R9ojuuBtWVthjceYn6tf8Fpf+CMOk/wDBYfwf8CPB+r/H7UfgRH8FPFfi/wASx31n8OY/iC3iRvFGi6DoskUkD+K/B8egLCugRMXjedZmZtsShAWAP8duv9Af9nr/AIM2vgB8afgH8EvjDe/tsfF/w/qfxW+Ffw7+JN7pNn8LPBV/YaSfH3grQPEj6KhbxQGJibWyiymRt0XQhQkh/lP/AOCvn/BOiw/4Ja/tma3+yhpfxYufjHBo3w+8A+OH8aXng8eBJyvjrRpJZNIXQV8UeMcNC8Um+VrrzGiaNRGqozV/V1/wTL/4OtPFPj/4ifsL/sHt+xZoWmaZr+ofAn9mQ/Er/he+tarqVgGXw38PU8dL4Tb4V/Ony+Z/wjg8YlgcRpchGSIgH5if8FvP+Dc34Uf8Emf2SvC37R3gz9pb4hfGTVfEPxt8K/Cx/DninwN4d8MaXY6f4g8O+LdffVkudC8QXM29JPDKxhXQI7yJ/qmZpU/kpr/aI/4LEf8ABLuy/wCCs/7L/hv9mrUPjJefBCz8P/F7wr8WG8YW3ghPHr3knh3QfE3h0aGPDw8U+DkPmx+I5JGlkugImihWNPMeQr/mbf8ABcD/AIJG6V/wR/8Ajz8Hvgxo3xu1H472/wAUvhU3xLOuXngOLwBJpx/4TfxF4aXRv7Gj8V+MjJkaFHKHa4OXYblaQNGAD8f/AIeeE08bePvAvhKa4a0g8V+LfCvhW8vQOdPGva1Boe9gCR8qSeZk5wBX+hLD/wAGRX7OM0UEw/bv+NmCAc/8Ko8C+vQH/hJvl5zwpz7Cvin/AIJkf8Gp/hX9qn9mn9kr9uKX9tjxH4Pu/iRpPhL4rx+ALX4I6Nq6aaNC8Qlo9EXxEfihbGZiNCCtL9mjGWOYomRkj/tB/wCCqn7dd/8A8E1/2Ivih+1zp3w5t/ivP8M7zwdaN4Mv/Fk3hP8AtIeKPHXh7wuudeXw14yeNkGuZbzbckcFGEgbywD/ADe/+C9//BDr4a/8EedO/Zy1H4e/HTxz8aI/jrqHxFsrz/hMvCuieHE0E/D+PwuzSQf2BPMZBL/wkaKxdskxsyrtX5/5tK/f7/gtV/wXL1j/AILE6Z+z5p+r/s46Z8CR8Cb34h3sbWfxGl+IC+Im+IA8Mq4lkk8H+Djohh/4R2MyhTcNIHB3sBX4A0Af6Enwf/4Mxv2e/iZ8J/hn8Rrn9t/4x6TP8Qfhz4O8b3Wk2vwq8EMtgfE+gaJr/kRlvFLttXziu5ixDMozmMZ9H/4gg/2cv+j7vjX/AOGm8Ef/ADS18U/C/wD4PRvF/wANPhr8Ofhvb/8ABP3wvq1v4A8D+EvBMesP+0VrOnPfx+GtBh8PDVfLX4TT+UZxbrK0ZdiryOxmRxGU73/iOF8Y/wDSO3w3/wCJLaz/APOioA+mf+IIP9nL/o+741/+Gm8Ef/NLXm/xm/4Mxf2fvhr8Ivif8R7D9tr4y6ncfD74e+MfHFho918KvBG2+Phfw9rviIaPuXxSrKZvs6qXDZLEsD87FfLv+I4Xxj/0jt8N/wDiS2s//Oir+yv9nL4rP/wUQ/4J5/Df4rXWjR/Ce9/a7/ZrOoXWi2F43il/BI+J3gmXRrxlmkj8JN4hTwy2suwRktY3kjjiEkcpRkAP8QKiv69P+Ctn/BsL4X/4Ji/sWeNf2tLD9snXfjHdeFfFPw/0D/hC774I6T4CS8Pj/wAQp4c8069H8U/GTgwvKJQojdMljtfI3fGX/BDL/ghnpH/BYrT/ANoXUNW/aN1P4DJ8BtS+HViE0/4bx/EBfEJ+ICeKJACsni3wcdEVP+EckRB+/kdWyU8veUAP0d/4JMf8GvPwX/4KP/sJ/CX9sDxd+1Z8TPhpq/xMv/iFZ33g3wr8OfCOrabp6+FPHniDwsjQ6zr3iUTTbxoW92MaMpOcJvcD9J/+IIP9nL/o+741/wDhpvBH/wA0tf09/wDBMn9hKz/4Jtfsa/Dn9kmy+Itx8WLH4ZXXjC9j8bXHhl/Cs2p/8JP4i13xJMr+Hk8SeLxbNE+tugSG7lEijc0Z+RF/ka8ef8Hq3jPwR458ceDj/wAE+fDGoDwj4r8UeFTef8NF6yDqDeH9bk0ZZAP+FTMP3qxmViQScqygFjgA9q/4gg/2cv8Ao+741/8AhpvBH/zS0f8AEEH+zl/0fd8a/wDw03gj/wCaWvmb/iOF8Y/9I7fDf/iS2s//ADoqP+I4Xxj/ANI7fDf/AIktrP8A86KgD+Nv9tP9n+x/Zc/a1/aP/Z10fX9T8ZaH8EPjJ8QvhlY+KNUsRpmoeINP8A+Ibnw8msvBgJE1x9nZlSMeUFUMECtsX5Rr6Z/a8+Pdz+1J+1D8ff2j5/C9t4Nufjr8WPGvxVm8H2WoPq8OgSePPEE3iFdI/teWKG51lYlugA0sasGLPsRxIg+vv+CQf/BOiw/4KlftmaJ+yhqnxYufg5BrPw+8feOE8aWfg8eO5wvgXRo5Y9IbQW8UeDstM8seyVbrzFiWRTGyurUAfoh/wQR/4IT/AAu/4K/+Cv2h/FnxA+Pfjn4LzfBTxZ8PvD1hZeDfCuh+I/7fXxboXiPWzLIPEE8IUxjQNwRSRz/q3Qiv6BP+IIP9nL/o+741/wDhpvBH/wA0tftz/wAEWv8AgjDpP/BHjwf8d/B+kfH7UfjvH8a/FfhDxLJfXnw5j+HzeG28L6Lr2ixxJAnivxhHr6zLr8rB5HgWFlXdEwclfyl/4Kc/8HVPij/gnp+258av2P7D9jHQvihb/Ci98KWI8eah8ctW8ItrY8ReBfDnir/kCxfCnxiiCP8A4SBYhtuDuWJd5kc+Y4B5B/xBB/s5f9H3fGv/AMNN4I/+aWj/AIgg/wBnL/o+741/+Gm8Ef8AzS18zf8AEcL4x/6R2+G//EltZ/8AnRV+4/8AwQ6/4L869/wWG+K/xy+GOsfsxaX8DIfhD8PNF8cjVbD4py+Pzrba94iHh5NIZZPBvg2KMqGMiygMpKBZCrhKAP8APz/4LY/8E1vBv/BKr9sq2/Zj8DfFDxH8WdHvfhB4N+JH/CUeJ9D0jw5qZvvFOs+JIDox0bQJZIo4bc+HojG7FW3XIO8LGip+fn7LPwesf2g/2l/gF8CtX1q88M6V8Y/jJ8NPhhqXiS0sDqN/4d074heN9A8Nf26YRhZGgGvIwZspnAkRlfa3+m//AMFdv+DbDw//AMFW/wBrG2/an1j9rXXPghdWvws8IfDOPwZYfBrSfHhYeGNY8RXC602sn4o+CipkXxBvMDQzFfJVd+8mN/8AP2/Z1+DUP7O//BaT4JfACLxH/wAJZb/BP/gox8OfhT/wk/8AZ50863/wrv4/6L4cOs/2IzM8YlbRGnZCT5jFXLbjyAf2F/8AEEH+zl/0fd8a/wDw03gj/wCaWj/iCD/Zy/6Pu+Nf/hpvBH/zS1/cbX80/wDwXG/4L763/wAEePij8DfhvpP7NGl/HY/GL4feKfHP9rah8UZfAH9hyeH/ABANB/slFj8HeMlmLMVklkCqC3yRqXDqQD8yv+IIP9nL/o+741/+Gm8Ef/NLR/xBB/s5f9H3fGv/AMNN4I/+aWvmb/iOF8Y/9I7fDf8A4ktrP/zoq++f+CZX/B1X4o/4KF/tufA39j++/Ys0P4XwfF++8V6efHenfHTV/F76H/wjvgbxJ4qJGjS/Cnwerh/+EeMLlrgBRLmPY4EkYB/M9/wXt/4IT/DD/gj/AOAP2c/GPw/+Pfjr4zzfGrxb4/8AC2oWHjPwdoPhr/hH08L6F4d11ZIToNzNvZx4hJMcmSpDBUVEZa/mVr/Yr/4LTf8ABGbSv+Cw3gv4CeDdX+P2pfAhPgl4t8XeLlv7P4dL4+k8SP4p0TQtGeGaKXxX4OTQBAmgxyCRJJhKzuViQxEt/mX/APBYH/gnHp//AAS2/bM1v9lDTPizc/GWDR/h54C8enxldeDx4DlKeOYJZDpC6CnifxgB9mMTs7m7Mjq6kQsqP5gB+UlFFFABRRRQAUUUUAFFFFABRRRQAUUUUAFFFFABRRRQAUUUUAFFFFAH9RH/AAaHf8pjvCX/AGbr8cf/AEyeH6/1cK/yj/8Ag0O/5THeEv8As3X44/8Apk8P1/q4UAfyEf8ABR//AIOr/DX/AAT1/bP+Nf7H2pfsX6/8VLv4Qah4VsD49svjnovg1dfXxF4H8O+K0kOiP8K/GflBF8QrEM3QJERzEm4bviT/AIjhfB3/AEjt8Sf+JLaN/wDOir+bj/g5b/5TW/tuf9h/4b/+qj+HtfhBQB/rk/8ABFv/AIL76H/wWI+J3xt+HWkfsz6v8Bl+Dngbwt45bVb74pQeP015te19vD50cCPwb4MMUqSLuWSUSRPtKmN2ZHX+i+v84v8A4Miv+Tov23v+yA/Dn/1P3r/R0oA/x07T/lYxt/8AtLh/79i1f7Flf46dp/ysY2//AGlw/wDfsWr/AGLKAP5oP+C4v/BAbXv+Cw3xX+BvxO0f9p3S/gZD8Ifh5rXgY6Vf/CyXx+dbbXvER8Qvq6tH4y8GxRlQwjaIllJQtGFcPX4cf8QPXjH/AKSJeG//ABGnWf8A57tf0Pf8FhP+C9vwv/4I/wDxR+Dfw2+IH7Pnj34xyfGLwJrnjqy1Xwb4z8P+GrfQ10DX18PNpM6a9BIZGkbdPvh8tNrsGiDlgfx6/wCI3z9nL/oxH41/+HZ8Ef8AzNUAev8A/BMb/g1W8Uf8E9P23Pgr+2Bf/tnaF8ULf4UXviu+PgPT/gbq3hFtbHiLwL4j8K/8hqX4reMUQR/8JA0p3W53LE2wSOfLf+y6v4cv+I3z9nL/AKMR+Nf/AIdnwR/8zVH/ABG+fs5f9GI/Gv8A8Oz4I/8AmaoA/BX/AIO7v+Ux/jX/ALIB8DP/AEx65X4S/sb/AB9h/Za/aq/Z5/aUvPDNx4ytvgR8ZPh58Wx4Pt9RbST4hbwD4hg8RjRk11A82iCT7OULJHIV3F3UEI1fYv8AwWZ/4KH+Ef8Agp9+2zrv7VXgf4b6/wDCrRNW+Hfw/wDBC+DvE2t6R4j1GP8A4QPSGgluDrWhwxxul00gZSArgKN7RsjqPiL9lP4D6p+1N+0r8Cf2cdJ8Rad4U1X48fFPwf8AC2x8Ta5bPe6ToWo+PNet9Aj1a4ijZWeOKSSMkK6yEgmORSgkUA/07/8Agj9/wce6F/wVm/ai8Rfs06T+ylrPwSn8PfCHxV8WH8YXvxji+IQvk8O+IPDOgNo0eiRfC7wPsaQ+JY380zTKDAdkPmAlpP8Agt7/AMG+evf8Fgfjl8IfjNpX7TulfAmL4WfClfho+i3nwsuPHsmt7vGviLxP/bSatF4z8HiDKa8UFuRMhMZkTLyFn8f/AOCIn/Bud8V/+CTP7Wvin9o7xn+0r8PfjJpPiH4JeKvhYnhzwt4G8Q+GNUsdQ8QeIfCfiBNWkude8QXEIRI/DBQqiB3SV/8AVKVlT60/4K9/8HAfwv8A+CQ3xn+F/wAFviD+zn48+MGo/Ez4XH4lWWseD/GXh/wxpWm6cPEmv+GDpMg163nZpzL4faVWjVUZXAELSbAwB+kX7HH7Ptx/wTr/AOCfvwp/Z/1DxTD8Vpv2XvgxqVhd+J7DRX8JxeMR4dXxB4lcpofm+LJtBEocwofOvQkixuQ+GiX+Bj/gqr/wdH+Ff+Ckf7E3xY/ZAsP2M9d+E9z8Q7zwfdjx5qHxy0nxetj/AMIt468P+KVX+w4vhT4Nd2nOhrA5FwXUlGfylDSV/oBfszfHrTv+ChH7CHgP48+GfDmqfDvTf2nfglq9/o3hzxLdR6rqXhFvE2k+IfDw/tm4tsQTiGRTI7QB0kUpzI7lz/nKf8FKv+DXr4yf8E5f2S/ib+194z/as+GfxM0b4c3vhO01HwZ4X+H3jDSNRv28UeItC8NROmt694kuFRIpdbSWWPy5TMiiONo3JEIB/KvRRX9SX/BMj/g2O+Mn/BTb9krwd+1l4P8A2qvhj8L9G8Z694x0Cz8IeJvh9r/iXUbJvAOvN4amkbXNC8RxqI55IC0cIghmjjCJOruokAB+gfwv/wCDLnxf8S/hr8OfiRb/APBQLwvpNv4/8D+EvG0ejv8As66zqL2EfiXQYfEI0rzF+LMHmmAXCxNIUUs8bqYXcxh+9/4gevGP/SRLw3/4jTrP/wA92v7NPjL8VNO/4J3/ALAXiv4reJtFvPiHpX7JX7OWk3uu6L4XnTStU8Yj4b+CtD8Pzf2G8hddAF2dJkMaFCkaFm2K4Yn+WT/iN8/Zy/6MR+Nf/h2fBH/zNUAfM3/ED14x/wCkiXhv/wARp1n/AOe7X9t/7DX7OU/7IP7IX7Of7Ll34qt/HE3wK+FfhT4at4wtdEHhtNePh7RzAdVGgLNONB84ZCwvNLIMASkSy8fyU/8AEb5+zl/0Yj8a/wDw7Pgj/wCZqv65P2OP2jtH/bB/ZX+An7UHh7w5qng3SPjt8OPC/wASLDw1rd6uqapoWneJYo5RpFxq8KxRzTKQDujC5ydqKSpQA/FL/g7G/wCUMHxv/wCypfAr/wBWBolfxCf8EMv+C5mkf8EddP8A2hdP1b9nLU/jynx51L4dXwfT/iRH8P18PH4fp4ojBLSeEvGJ1tX/AOEjkdD+4kRVwX8veH/t7/4Oxv8AlDB8b/8AsqXwK/8AVgaJX+S7QB/tzf8ABMn9u2z/AOCkv7Gvw5/a2svh1cfCex+Jt14wso/BNx4mfxVNpn/CMeItd8NzM/iFPDfhAXLSvojuHhtIhGp2tIPkdv5GvHn/AAZU+M/G/jnxx4xP/BQbwxp48XeK/FHio2f/AAzprJOnt4g1uTWVjB/4Wyo/dLIYmBIIwqqSVOfkL/gkx/wdDfBf/gnB+wn8Jf2P/F37KfxM+Jer/DO/+IV5feMvCvxG8I6TpuoL4r8eeIPFKLDo2veGjNDsGu7HUyOzEYy+xyf0n/4jfP2cv+jEfjX/AOHZ8Ef/ADNUAfM3/ED14x/6SJeG/wDxGnWf/nu0f8QPXjH/AKSJeG//ABGnWf8A57tfTP8AxG+fs5f9GI/Gv/w7Pgj/AOZqv6N/+CS3/BT7wZ/wVk/Zu8TftIeCfhZ4o+EWheHvinrnwrHhzxTrei+JtSvdU8PaF4Y8RS6wJvD0caxxH/hI4lSF0jLeU7lpNu9QD/H2/a8+Alz+y3+1D8ff2cJ/FFt4yufgV8WPGvwqm8YWWnvpEOvyeA/EE3h5dX/siWWa50ZZVtQQssjMWDJvdzI5/ej/AINEf+Ux/gr/ALIB8c//AEx6HX6wf8FNv+DVP42ePvin+3P+3lD+1r8MNP8ADWv6/wDHX9pZvh3efDzxm2qJpJPiH4iTeHjrzeJriFZQqPEZGWQI4B2s0aivyf8A+DRH/lMf4K/7IB8c/wD0x6HQB/q71/j3f8HMn/Kan9tD/sO/Dj/1UHw+r/YRr/Hu/wCDmT/lNT+2h/2Hfhx/6qD4fUAfgxX9vv8AwZFf8nV/tu/9m+fDr/1YMlfxBV/b7/wZFf8AJ1f7bv8A2b58Ov8A1YMlAH+j3X+Ond/8rGNx/wBpcP8A37Fa/wBiyv8AHTu/+VjG4/7S4f8Av2K0Af7Flf5xf/B7r/ydF+xD/wBkB+I3/qfpX+jpX+cX/wAHuv8AydF+xD/2QH4jf+p+lAH8Pdfu/wD8G0n/ACmt/Yj/AOw/8SP/AFUfxCr8IK/d/wD4NpP+U1v7Ef8A2H/iR/6qP4hUAf7DNf5R/wDwd4/8pjvFv/ZuvwO/9MniCv8AVwr/ACj/APg7x/5THeLf+zdfgd/6ZPEFAH8u9FFFABRRRQAUUUUAFFFFABRRRQAUUUUAFFFFABRRRQAUUUUAFFFFAH9RH/Bod/ymO8Jf9m6/HH/0yeH6/wBXCv8AGd/4Ib/8FBvhT/wTQ/bs0T9p74yeHvGPifwTpnws+I/gg6P4BsdF1DxMdX8UwQJpBjXXpIII4Y5LdlkkWaJiGiDHbG6r/an/AMRon/BOT/oiX7Uv/gi8Cf8AzYUAfx6/8HLf/Ka39tz/ALD/AMN//VR/D2vwgr9L/wDgrj+2B4C/b4/4KDftBftX/C7RvEmheBfivrHhLUNG0vxjZaLbeJ7VfD3gHwx4UlXVo9AeZFBbQHdR59wyJ8rSOUDV+aFAH9wn/BkV/wAnRftvf9kB+HP/AKn71/o6V/ke/wDBvN/wVv8A2f8A/gkx8YP2i/iD8fvBvxI8X6X8Yfhv4T8J6FbfDOw0PU9QstV8OeJZNfkn1UeIfEdiI4pRIYowod0lDyN2hX+rP/iNE/4Jyf8AREv2pf8AwReBP/mwoA/iJ+O3xi0b4Af8Ft/it8cvEGj6lrejfBr/AIKReLviVrOi6HIkeo6npXw6+P8AN4lOjaUzsEWTboZhidio2eUpdR97/RF/4Jbf8HHP7Pn/AAVK/acn/Zi+GXwC+MXw68SQ/DfxR8ST4k8bah4L1LSTpfhqXw8k2jhfDk0siSOdfRI95Lb4gpkbczL/AJcX7XnxY0H4+/tW/tI/G/wzYanp3hj4w/HL4ufE7QrDWGJ1XT9I+IfjrX/FGj/2zIAUE0ceuxiQg5xgZbKBv0a/4IP/APBRT4Qf8Eu/23bz9pT42+G/G/iXwhe/BPx/8N00bwBY6RfaydU8Uaz4ZuYnMeuzwRrAn/COHzNlzGxMipJmMlaAP7nf+C/f/BBr46/8FdfjL8APiP8ACn4z/DL4X6Z8Ifhb4s8E61YePtM8Q6nf6lquu+Iv+EkhfSV8PQuh2wZRhMYxuO4Exgo34B/8QS37aH/R337M/wD4I/ir/wDMvX7J/wDEaJ/wTk/6Il+1L/4IvAn/AM2FH/EaJ/wTk/6Il+1L/wCCLwJ/82FAH42f8QS37aH/AEd9+zP/AOCP4q//ADL1+PX/AAVz/wCCGfxr/wCCQ3hT4KeJ/ix8Zfhp8ULb42eIPF3h7RbbwBZa/psmlS+FdH8P65OdZXxHHAQGbX0jUAOG8sMsrIysv9jH/EaJ/wAE5P8AoiX7Uv8A4IvAn/zYV/OP/wAHDn/Bbz9mj/grd4E/Zn8M/AL4f/FjwjqPwa8UfEXXvEjfE+w0LTkvtJ8TaH4bji/sj/hH/E18spV/D7vIkiwtIo+Qo+zeAfynV/dj/wAEwf8Ag1k/ac8AfGP9hj9u3UP2jfgheeCvD3iv4FftK3vgmz0Txy3ig+GF/wCEc+I0Wgo5t44x4iFs6W4HmpEJwCZVA+zr/CdX+j/+zV/wd5fsA/B79nb4CfCnX/gp+0tca58MPgz8M/hzrd/Y6D4I/su91TwD4C8OeG9ZfSG/4S8boXk0hXiVzCoEsZU4dXIB/Rl/wVY/4KcfDn/gk9+zt4d/aN+Knw58Z/Ezw/4h+KGi/Cq10DwHd6Fpuqx6t4i0LxJ4iTWN+vypCY418NXMbQq0hLsHLjjzP8zz/gvn/wAFZvhZ/wAFc/2gvgr8XvhT8M/HXww0X4Z/B1vhpqGj+Pr/AEO/1HUdTbxx4n8SDV4/+EbkkijTydeWPyyzFpASE3M8dfqB/wAF8/8Ag4T/AGTP+Cpf7GnhD9nn4JfDn41eD/Ffh74+eE/iZd3vxDsNB07SpNK8OeG/iF4daJR4f8VXe+Zz4mQqGVjGWUMVaNpB/GjQB/ff/wAEsv8Ag6U/Zk/Zd/ZM/Y//AGI/E/7OHxq8ReNPh54b8J/CXUPGGia74JHhi/1bXvEBUazCs8q3SQLJrilkkQyHEglIaRiv9Yv/AAV8/Yi8b/8ABRr9gj4s/sm/Drxf4Z8CeKfibffD29tPE3jCy1fUdH0tfDPjvw34oZnHh9jOHYaFtDRrOgPzsgBBP+Mf8MvE1l4Q+IvgHxbqMN1c6d4R8beFvEd3Z2oJkk03Qtdt9anQE7tzEQttz2LEkEgj/Skh/wCD0H/gnHFFDEPgh+1JhQASdB8CkgZ7n/hMBuz/ALI6UAfxsf8ABXf/AIIj/Gj/AIJCWfwSvPi18YPhp8UV+Nt94ysNBHw/std09NNfwHF4b899YTxFFEp85PEEQHl7kUoVd2+fZ+xn/BG3/g5m/Zt/4Jq/sG+Af2UviB+zx8aPiF4t8KeK/iH4jvPEngzW/BVnpN6vijXX8QoiDxFcQSCRPMaJyxZgQOOUdvkL/g4i/wCC1X7Of/BWzSf2XrP4CeBPi14Ql+CWofEm98Sf8LO0/QdO+3Hx3H4WGijRx4e8S3xmMSeH3ldpIkZY5I2Jbyt0v8t9AH+3X+1x8I9S/wCChH/BOT4xfCv4e6jp3gbV/wBrn9muXTvCuseMom1HS/Dx+Ifh6HXNCfXV0Ji8iQrrSbzbM245IV3JD/w1f8QS37aH/R337M//AII/ir/8y9fqX8EP+DwT/gnv8Ofg18JPhzqfwY/acudX8AfCzwB4Lv7qz0HwMdOfUvDfh3QvD0zIzeMQQA8Mkhfyyo2GMLl0I9I/4jRP+Ccn/REv2pf/AAReBP8A5sKAPxs/4glv20P+jvv2Z/8AwR/FX/5l6/vQ/wCCf/7O/iD9kn9ib9mD9mPxbr2leKPEfwM+DvhD4baz4j8PwSw6Tr2p+HtESOTVtDS5UTrHKFYxiRdzEuSWCrn+cL/iNE/4Jyf9ES/al/8ABF4E/wDmwo/4jRP+Ccn/AERL9qX/AMEXgT/5sKAPrn/g7G/5QwfG/wD7Kl8Cv/VgaJX8D3/BIj/giP8AGj/gr3Z/G28+Evxg+GnwuX4JX3g2w14fECy13UE1J/HkXiTyH0dPDsUqjyU8Pyg+ZtRi4VHX5N/7g/8ABar/AIOSf2Mv+Cj37AHxD/ZR+D/wy+PPhnx14q8WfDnxBY61420bwbY+G9vhrX4/EOuCWTQPFt7KHOwoHkiZZZZPNZD85b4N/wCDd3/gtV+zn/wST0n9qGz+PfgT4teL5fjbqHw2vfDf/CsdP0HUfsJ8CR+KRrQ1geIfEtiYTKniBJUaOJ2aOORgV83dEAfY3/EEt+2h/wBHffsz/wDgj+Kv/wAy9H/EEt+2h/0d9+zP/wCCP4q//MvX7J/8Ron/AATk/wCiJftS/wDgi8Cf/NhR/wARon/BOT/oiX7Uv/gi8Cf/ADYUAfjZ/wAQS37aH/R337M//gj+Kv8A8y9f11f8EK/+CZXxN/4JR/sh+LP2b/in8RPBvxM8Q+IPjh4t+LNjrngKy1mw0iLS/EHhn4f+HhoxXxEI5GdJPC4bAWJSs4CO7KSn5Uf8Ron/AATk/wCiJftS/wDgi8Cf/NhR/wARon/BOT/oiX7Uv/gi8Cf/ADYUAcN/wUm/4Omv2Y/h/eftv/sJ337OHxvuvG/h6w+Ov7NkvjSx17wKvhiTxW2i+Jfh02txxtclx4ee7kEwUrLI0W/bEVxOn8Zf/BE//goV4B/4Jf8A7cWh/tXfE3wH4v8AiH4X0b4dfEfwR/wjfgvUNF07V5NR8U6IkML7vEJEAihljEbDzInaSbC7gW8v5F/bs+Ovhf8Aac/bO/ah/aH8E2Or6R4T+Nnxw+I3xH8Naf4jdW1mx0TxR4hk1zR4tYI3xNKYJVBUkgZJb7uK+PaAP9mD/gkZ/wAFk/hD/wAFefCvxn8W/CT4U/EL4XWfwT1/wf4e16x8eXeg6nLqUvirSNe1e2bQz4dlfJiXQpEkSUMz5jdEXCI34G/8FX/+DXH9pz/goF+338dv2uPAP7R3wS8B+Ffite+Eb7RfDXivQvGj+ItNHhzwH4b8MMJP7CtpYZH3eH8oSyyDO4Rg8j8Qv+DeP/gt5+zR/wAEkfAn7THhn4+/D/4seLtR+Mvij4da94bb4YWGhailjpPhnQ/Ekcv9r/8ACQeJrFYiz+IEeNI1maNT85d9+z+jj/iNE/4Jyf8AREv2pf8AwReBP/mwoA/Gz/iCW/bQ/wCjvv2Z/wDwR/FX/wCZev38/wCCAn/BBr46/wDBIr4y/H/4j/Fb4z/DL4oaZ8Xvhb4T8E6LYeAdM8Q6Zf6bquheIv8AhJJn1ZfEMKIN0GEUQmQbhuJEZCL4t/xGif8ABOT/AKIl+1L/AOCLwJ/82FH/ABGif8E5P+iJftS/+CLwJ/8ANhQB9n/8FSf+Djn9nz/glr+05B+zF8TfgF8YviL4km+G/hf4kjxJ4J1DwXpukjS/EsviFIdHK+I5opHkQ6A6SbCG3ylRIu1Wb/O6+BPxi0b4/wD/AAW3+FPxy8P6PqWiaN8Zf+CkXhL4laNouuSJJqOmaV8Rfj/D4lGjaqyMUaTbrghldSw2eaodh930L/gvB/wUU+EH/BUT9t2z/aU+CXhvxv4a8IWXwT8AfDd9G8f2OkWOsjVPC+s+JrmVxHoU88bQP/wkY8vfcyMDGyR4jAWvzl/ZD+LGg/AL9q39m743+JrDU9R8MfB745fCP4na7YaOxGq6hpHw88daB4o1j+xpCAhmkj0KQRknJGRlcOFAP912v84v/g91/wCTov2If+yA/Eb/ANT9K/WX/iNE/wCCcn/REv2pf/BF4E/+bCv5TP8Ag4Z/4K3/ALP/APwVn+MH7OnxB+APg34keENL+D3w38WeE9dtviZYaHpmoXuq+I/Esevxz6UPD3iO+EkUQjEUgYI7ylJF7wsAfzk1+7//AAbSf8prf2I/+w/8SP8A1UfxCr8IK/S//gkd+2B4C/YH/wCCg37Pv7V/xR0bxJrvgX4Uax4t1DWdL8HWWi3Pie6XxD4B8T+FIl0mPX3hRgG19HYefbs6fKsiFy1AH+2TX+Uf/wAHeP8AymO8W/8AZuvwO/8ATJ4gr+mH/iNE/wCCcn/REv2pf/BF4E/+bCv4rP8AguR/wUG+FP8AwUv/AG7Nb/ae+Dfh7xj4Y8E6n8LPhx4IGj+PrHRdP8TDV/C0E6auZF0GSeCSGSS4VY5GmlYBZQp2yIrAH400UUUAFFFFABRRRQAUUUUAFFFFABRRRQAUUUUAFFFFABRRRQAUUUUAFFFFABRRRQAUUUUAFFFFABRRRQAUV+9f/BvL/wAE/P2eP+ClH7c2t/s//tMWvjK78B2HwT8Y+PrMeCvEp8L6sdX8Oa54YiRTrSRSMMDXm3qI2JDHeuBX9uv/ABCAf8Efv+gP+0d/4e8//MrQB/lP0V+2v/Bfb9hP4Gf8E5v+ChPib9mz9nG38VWfw00v4W/DbxVZR+MNc/4SXVjrHifQ5ZdcU6u8cTMu+Pe0ZjQRNhQMlTX4qQkCXM0LT/7IJ7d+ODQBVor/AEIf+Cb/APwRl/4N5/8Agon+zn4O+L3gHxn8TdI8Y3OjaMPin8KdY/aP0XTfGPw88eG2kPiTQdc8OfZ/Nj8Omd5YfA3iNGMNzbyR3JuZZt1kn6F/8QqX/BDr/oY/ix/4kzpP/wAjUAf5adFf6ln/ABCpf8EOv+hj+LH/AIkzpP8A8jUf8QqX/BDr/oY/ix/4kzpP/wAjUAf5adFf6ln/ABCpf8EOv+hj+LH/AIkzpP8A8jUf8QqX/BDr/oY/ix/4kzpP/wAjUAf5adFf6ln/ABCpf8EOv+hj+LH/AIkzpP8A8jUf8QqX/BDr/oY/ix/4kzpP/wAjUAf5adFf6ln/ABCpf8EOv+hj+LH/AIkzpP8A8jUf8QqX/BDr/oY/ix/4kzpP/wAjUAf5adFf6ln/ABCpf8EOv+hj+LH/AIkzpP8A8jUf8QqX/BDr/oY/ix/4kzpP/wAjUAf5adFf6ln/ABCpf8EOv+hj+LH/AIkzpP8A8jUf8QqX/BDr/oY/ix/4kzpP/wAjUAf5adFf6ln/ABCpf8EOv+hj+LH/AIkzpP8A8jV+bn/BUD/gjr/wb3f8E5f2bvHPxU8X+MfiXr3xOfw5rdp8IPhXov7RUGo+LviB8QmtxH4cWLw9HAZz4aEyRL438SDZa28AlnheG5xbSgH+ftRRX7a/8ECf2E/gZ/wUZ/4KE+Gv2bP2jrfxVefDTVPhb8SfFV7H4P1z/hGtWGseGNDil0NRq6Rysq75N6xiNxK2VIyGNAH4lUV/qwf8QgH/AAR+/wCgP+0d/wCHvP8A8ytfxFf8HDX/AAT8/Z4/4Jr/ALc2ifs//sz2vjK08B3/AME/B3j68HjXxKfFGrDV/EeueJ4nUa08UbHI0FdimNSAo2Lg0AfgpRRRQAUUUUAFFFFABRRRQAUUUUAFFFFABRRRQAUUUUAFFFFABRRRQAUUUUAFFFFABRRRQAUUUUAFFFFABRRRQAUUUUAFFFFABRRRQAUUUUAf1jf8Gb//ACla8Uf9mq/Fn/1JPh1X+plX+Wb/AMGb/wDyla8Uf9mq/Fn/ANST4dV/qZUAf5RH/B3d/wApj/Gv/ZAPgZ/6Y9cr+X6v6gf+Du7/AJTH+Nf+yAfAz/0x65X8v1AFy3uZ4JjNbzTW9xng22VPv911Prxk881Z/tzV/wDoKaj/AOBs/wD8VWVRQBq/25q//QU1H/wNn/8AiqP7c1f/AKCmo/8AgbP/APFVlUUAav8Abmr/APQU1H/wNn/+Ko/tzV/+gpqP/gbP/wDFVlUUAav9uav/ANBTUf8AwNn/APiqP7c1f/oKaj/4Gz//ABVZVFAGr/bmr/8AQU1H/wADZ/8A4qj+3NX/AOgpqP8A4Gz/APxVZVFAGr/bmr/9BTUf/A2f/wCKo/tzV/8AoKaj/wCBs/8A8VWVRQBq/wBuav8A9BTUf/A2f/4qj+3NX/6Cmo/+Bs//AMVWVRQBq/25q/8A0FNR/wDA2f8A+KqpPcTzzefNMZ5yRljlicfQAY+g5/WqtFABX9QP/Boj/wApj/BX/ZAPjn/6Y9Dr+X6v6gf+DRH/AJTH+Cv+yAfHP/0x6HQB/q71/lm/8HkH/KVrwv8A9mq/Cb/1JPiLX+plX+Wb/wAHkH/KVrwv/wBmq/Cb/wBST4i0Afyc0UUUAFFFFABRRRQAUUUUAFFFFABRRRQAUUUUAFFFFABRRRQAUUUUAFFFFABRRRQAUUUUAFFFFABRRRQAUUUUAFFFFABRRRQAUUUUAFFFFAH9Y3/Bm/8A8pWvFH/ZqvxZ/wDUk+HVf6mVf5Zv/Bm//wApWvFH/ZqvxZ/9ST4dV/qZUAf5RH/B3d/ymP8AGv8A2QD4Gf8Apj1yv5fq/qB/4O7v+Ux/jX/sgHwM/wDTHrlfy/UAFFFFABRXo/wy+HXir4u/EPwB8KvA+nyat40+Jfizwt4F8LaShI+3+KPE2uReHtDtyB0Dz3UaFiGCl2JVgStf6kf7K/8Awalf8Ex/hb+z9ovgX9or4bXvx9+M2qeGLdfiF8WLnxr468KLB4o8kJrX/CAaF4c8TW0HhnRVnkliVXlvJpIgkkkwkuGSIA/ylaK/az/guF/wSvvf+CT/AO2Lc/Cbw/q2o+Kfgh8SfCSfEf4J+KNTHmao3haXVJfD+ueHvERjNur+IfCPiO2kjlkZQZLefw7OwZ53J/FOgAooooAKKKKACitnTNO1HWNQs9J021uru/1G7SzsrS1bc15qTuqIqgkKWJkQEgcZyGAJI/11f+COf/BDn9mD/gn5+zj4A1D4ifCbwJ8Uv2qvGPhbSNd+L3xJ8eeFND8T6noWta7ao83gDwP/AMJFbyN4Z8P+EY5E8NiO3QXV5LbvcXNxObiZKAP8hGiv9Mz/AIOVv+CH/wCz/wDEf9lb4k/tufs2/Dbwz8I/jx8ANBfx38QLH4e+H9G8L+G/ij8ONGLP4rOu6D4dW3hPinwlaCPxJ/wkxiWV7aC4S5nnEkhg/wAzOgAooooAK/qB/wCDRH/lMf4K/wCyAfHP/wBMeh1/L9X9QP8AwaI/8pj/AAV/2QD45/8Apj0OgD/V3r/LN/4PIP8AlK14X/7NV+E3/qSfEWv9TKv8s3/g8g/5SteF/wDs1X4Tf+pJ8RaAP5OaKKKACiiigAooooAKKKKACiiigAooooAKKKKACiiigAooooAKKKKACiiigAooooAKKKKACiiigAooooAKKKKACiiigAooooAKKKKACiiigD+sb/gzf/5SteKP+zVfiz/6knw6r/Uyr/LN/wCDN/8A5SteKP8As1X4s/8AqSfDqv8AUyoA/wAoj/g7u/5TH+Nf+yAfAz/0x65X8v1f1A/8Hd3/ACmP8a/9kA+Bn/pj1yv5fqACiitew0rVtUY/YdP1LUSOP9DsJtRYHuMRq2Pf6YNAH6hf8EPrO3vv+CuP/BPO2vYPtFq/7TXw3DJ2IXXCQe2QH6A98HFf7T9f4vn/AARC8Oa7b/8ABXP/AIJ8Tz6HqUFsP2l/h4Ga7sZFA/eu2SJETIIIYHgYIz8wIr/aDoA/z8P+D4CzhTX/APgntqHk5nOh/tD2JucYLIZfhk/lH1O/D5PYYBxX8C1f6AP/AAe56Xf6nqX/AAT1GnWGo6jix/aGH+g2UmoYO74Yv0j3HcMbiOyAMvzKoP8AA9N4a16CPz7nRNYgtz/EbCcD8SUX8yv6CgDn6KKKACiivun9lT/gnL+3J+2vZ6xqn7Kv7MfxS+NegeHJfsuu+IvDPh9x4XsNSdN7aNL4n177J4ZTXGj5WBbsTKAX8tVIZgDyf9kzWdA8NftTfs2eIvF6Qr4R8PfHz4Qa54oN2flXRtF8eeHLjXfMwc7WtklOPZS3Ctj/AHWoLiG4ihnglE9vcj5WzkMGBwRwCOeCMCv8Ir46fs+fHL9mH4gX/wAL/wBoL4WeN/g/8Q9NCS3Xhfx7omr+H9VRZSzRawkdxtMylSD5sJli2sDyxIH95H/BHn/g6r/Z18L/ALOXgj4Af8FFNT8beDPiR8KdD03wnoXxy0Tw7rnjjw38Q/Cug27r4fbxTa+G1k8T6J4rgtbOOO5nNneW3i4Km4wyzeTKAf15/wDBQbxN4W8H/sK/tieJvG1xbW3hHSv2ZfjlNrLXeAnlf8K98RIMknkbzwoyckN0Ukf4Z1f2uf8ABf8A/wCDkT4d/ts/BrUP2L/2H7DxhB8HPGM+lXnxq+MXiKx/4R3UfiDpmis+vweAvDvhtZ457bw/J4iiF34z8R3LCO5FlBHbW72szNJ/K1+y/wDsUftZ/tqeJtR8HfstfAH4ifGzWNIK3mtnwPoEmo6ToMUzAhtd15zD4Z0FHDI0X2maBnDIigqCoAPkiivqr9pj9jb9qP8AYz8Y2vgL9qL4EfEL4HeKNTtf7Q0ex8f6JNpsWuaWspQy6FriGTw3r8a7D572s05jdURgsjRxH5VoAK/qB/4NEf8AlMf4K/7IB8c//THodfy/V/UD/wAGiP8AymP8Ff8AZAPjn/6Y9DoA/wBXev8ALN/4PIP+UrXhf/s1X4Tf+pJ8Ra/1Mq/yzf8Ag8g/5SteF/8As1X4Tf8AqSfEWgD+TmiiigAooooAKKKKACiiigAooooAKKKKACiiigAooooAKKKKACiiigAooooAKKKKACiiigAooooAKKKKACiiigAooooAKKKKACiiigAooooA/rG/4M3/APlK14o/7NV+LP8A6knw6r/Uyr/LN/4M3/8AlK14o/7NV+LP/qSfDqv9TKgD/KI/4O7v+Ux/jX/sgHwM/wDTHrlfy/V/UD/wd3f8pj/Gv/ZAPgZ/6Y9cr+X6gD78/wCCZv7Idx+3d+3d+zP+ymLy607Rvix8QtOsPFmpWik6jYfD7QobjxB4/mhVZECzQeFNE1xrfJwsyo53JlG/2VPgH+x7+zN+zT8L/Cnwi+CvwW+Hngb4f+ErKG30fSNN8J6LHIzpFA8ms65qpjkuNe8RTMrO/iaeWe73StH5pUItf5En/BDn9qHwX+x//wAFUf2Rfjd8SLu00L4d2PxC1Lwt4z1jUXkGmeHdF+IfhnxF8PpfETgI+U8MnxKLxpGDtGkUpXK5Df7OFnd219aQ3+nzW93a3dst3bXVqy7b1WXcrjAIKsCvUkhjg7SMUAc9aeB/BFpc299p/g/w1a3NsMWl7ZaLo8LKCMYjeKNX9SCCrAgkMDXaUUUAc1q3h3w9rywjXtA0jXGt8m0bWtO0vUdpI6xrPGyqDk8KFznOM8Vi3Hwy+HVzDPb3PgLwRPb3AO61n8K6I6uSMEMGtyjZPPyhcZ4wa7+igD/Mg/4O0P8Aglz8IP2Pvix8Gf2qf2dfCGjfD/4e/tGXXirwn8QvAfh6wt9L8M6D8WtBWPxI3iDQdCihSHw9F408PTyNLZ2+23Wbw9cTRJCs8jP/ABzV/f5/werftTfD/WLX9lD9jvQNVttS8f8AhHWvF3x0+IVhYXMjP4V0jXdEh8MeAI9WRVUCTxUlz4kuIg7bRFAsm8+Ym7+AOgD3r9nH4M6z+0V8fvgl+z/oM32PV/jJ8VPh78NNPuipK6bN4+8R6D4e/tgZBUiJbsTOrjawwh+9X+3b+zD+zP8ACv8AZF+Bnw6/Zz+CfhzTfDHw4+G3hrStD0axtrFFe/khEQ17XNbYBTPrviiV5rm7lmaVjO0hVvJVbdP8WX9gH406H+zr+3F+yT8ePFBY+GPhT+0T8IfGPipmJBsvCXh7x3oL+JCT0fZ4dFyobrwRktX+4TpGs6br2labruj3lrqeiatZadf6RfWZBsL/AEzWBE0EifeDho2WRehAkQMoJdAAfznf8HPn7AngD9q//gmx8VfjOvhzTx8bP2SNBf4s+APFtnZR/wBtf8IjoTNP8RfBTyEAp4bm8NPP4quE23DLceHIJI1iVZXf/Jar/Zn/AOC93x38K/s8/wDBJX9tjxN4kvLaK58a/B/X/g54W0+4iVjrvir4xQv8P9G0pUiV2YLHrc15K7lAtvoUskj7Y+f8ZigDX0zTbrVdQstPsITPc6leLZ2SknLMWVQMZHQOCSeQAeDmv9r/AP4JafsKfDv/AIJ6/sXfBj9nvwToWn2Os2PhPQNf+J/iIWipqnjL4ta1oUDeONc10YDGQzwrbQReYkMcEKRRInzeb/iq+FdZfwr4n8NeJIIvtB8Pa7o/iELj739jawk0Y9PnMSDPQMVJ6c/7rv7O3xh8IftDfAn4QfG/wBfwap4K+K3w88JeO9Avbc4jm0vxFoUNzEU5+7GzGIEc5jcdFFAHwL/wWQ/YH+Hf/BQ79gr46fB7xL4f0248e+G/BHjD4k/A/wAQnT0OueDvi34c0qTXvD0uiFxE0cXi0xt4T8Xssj+dZeIbn93JP5Xlf4uTrsODzX+6X+2h8dfB/wCzV+yn+0V8dvH95Yaf4S+Fnwg8d+LL64vplC38sWiP/YegbBHI6nxX4glt/DduhRQ8s8QMkeRKn+GBeXb3l3c302ftF1dNctxx87szY/4ER1P8PFAFGv6gf+DRH/lMf4K/7IB8c/8A0x6HX8v1f1A/8GiP/KY/wV/2QD45/wDpj0OgD/V3r/LN/wCDyD/lK14X/wCzVfhN/wCpJ8Ra/wBTKv8ALN/4PIP+UrXhf/s1X4Tf+pJ8RaAP5OaKKKACiiigAooooAKKKKACiiigAooooAKKKKACiiigAooooAKKKKACiiigAooooAKKKKACiiigAooooAKKKKACiiigAooooAKKKKACiiigD+sb/gzf/wCUrXij/s1X4s/+pJ8Oq/1Mq/yzf+DN/wD5SteKP+zVfiz/AOpJ8Oq/1MqAP8oj/g7u/wCUx/jX/sgHwM/9MeuV/L9X9QP/AAd3f8pj/Gv/AGQD4Gf+mPXK/l+oAK/XT4Cf8Fw/+Cq37Nvw70P4T/CD9s74l+H/AAH4TtU0/wAL+HNZh8P+OIfD2kxFmGi6E3jHw54uWDQUYMyW67YlJzCY1wD+RdFAH9cH/BKT/gvJ/wAFXv2g/wDgpB+xp8EfjD+134q8a/C/4m/Hrwj4T8a+HLnwV8L9Ij17RfELtFLo7v4e8G28kaOAPJMbhkP+sYMAo/1GK/xaf+CGn/KXr/gnj/2c18Pf/Rj1/tLUAfxuf8HWn/BSr9tX/gn3qH7F8H7Ivxx1n4NL8T7L45SeOzo3h/wPrB14+G3+GqeHSI/FnhXxWsYRte14r8sKiQBsbnZz/HxqH/Bx9/wWiv7Wewn/AG5PHlrDNlTcWfgn4VWOpLkYOxk8HBkBBwfmbPTmv6Hf+D4b/kI/8E8v+vT9o3/0P4MV/ApQB6N8TPib4++MPjjxL8Sfir4w8SfELx54t1Ftb8T+MvGGtz+J/EviDU5tqNPq+u3MhuZmdRgl23DCrjAjKec0UUAFf1V/8E0f+DqH9q/9gf4M6F+zv8QvhX4Z/ag+GvgTTzonwzu/EnivWPCfj3wlpqxqNK0M6/bweKY9e8OQmJVt7d7YSWttthguGQxGf+VSigD9of8AgrJ/wWu/al/4Kz+LfD0nxTg0P4c/B3wHe3N14B+CPgq91Sfw1p2q3Ebxy+INd1edhP4k8SyQMqJdt5CwxP5EEaCKOvp3/gl9/wAG1f7aP/BSz4W23x3Pibwd+zt8Dte8x/A3jD4gaXrWqax8QGjEcA1Lw74O0MROPDW6URJ4muLiGCWVZmhjmjjklH4UfAP4c/8AC3/jn8FvhVNcC1tvif8AFT4dfD5rlv4G8UeJNE8PEjHdF1dAO3zA84wf90v4d/Dnwl8Jfh74H+F/gHSbXw/4M+HvhbQ/BHhPRrW1VLDTdE8O6THoWj2wjQAbI7eKNGIJ8wH5zks5AP8AH8/4Ktf8EOP2uP8Agk5deHtZ+KTeFPid8GfF15/Y/hr42/D5NVHh1tZcSFtB8SaPr8Ud34Y8QSLG7QQyPJBIkUjQ3O7Ya+if+CTf/Bxn+1X/AMEvfAVx8D/+EP8ADX7Qf7PZvNT1Dwt4E8Z67q3hvWPh/qeptBLqzeBfGcUV7NF4eeZGl/4Ri5iMQubl5bea1dzKf9Jv/grb+zp4T/ai/wCCb37Yvwh8YWNpNaXfwI+IXi7Rb+6RT/Yvi7wBoU3xA8L6wvIZHg8S+HbWV3T+FWG0qSy/4llAH9C3/BXD/g4U/aq/4KpeGNP+El94b0L4C/s86bqaazdfC3wPr2q6lqPjXVI0ZdF1j4geI7qOH+20to5UeDw5Hbrb286TzhXkZrsfz00UUAFf1A/8GiP/ACmP8Ff9kA+Of/pj0Ov5fq/qB/4NEf8AlMf4K/7IB8c//THodAH+rvX+Wb/weQf8pWvC/wD2ar8Jv/Uk+Itf6mVf5Zv/AAeQf8pWvC//AGar8Jv/AFJPiLQB/JzRRRQAUUUUAFFFFABRRRQAUUUUAFFFFABRRRQAUUUUAFFFFABRRRQAUUUUAFFFFABRRRQAUUUUAFFFFABRRRQAUUUUAFFFFABRRRQAUUUUAf1jf8Gb/wDyla8Uf9mq/Fn/ANST4dV/qZV/lP8A/BoR4rh0T/gr7pmk3Fxtfxr+zn8bdBsyen9ooPC/iTPAJ3ND4dfGcZ44HOP9WCgD/KI/4O7v+Ux/jX/sgHwM/wDTHrlfy/V/W3/weQfDDWvCX/BUTwX8SJoANG+K37NHw+utPu1JO/VfAeu+KPDOuqF4CiOL+wRnqSwXiv5JKACiiigD6N/ZU+PmtfssftKfAX9ozw9bi+1r4H/FTwB8S9OsdzKl6fC+v23iB9NJJIxciFovmIXcSScgGv8Aac/Zg/bq/Zi/bD+Anhj9o74M/F3wTrnw51/RF1q/e+8VaHpupeDZo0ibX9E8dWwnd/DGveE5DJBdw3MsDrJEx3+UUu2/w1q2bPV9Ysba5sLC+1C3tdT2rfWtrdOi32DwHSMfNzwQwct905AxQB/TT/wdL/8ABSf4X/t7/tseC/A3wJ8Rad43+D/7Kng/WfA+neONNul1HR/F/wAQvFmrpr3xB1nw3Ijusnh2BdI8NeGRKskySy+HHnR1gaGIfy+0UUAFFFFABRRRQB6D8N/Hmr/DP4g+AviPobEa58P/ABn4U8b6OQOG1PwvrUHiC0z1wBPAgY4OBzwDX+31+xX+1p8J/wBuj9mb4UftPfCDW7PWPB/xJ8M6Tf3Nrb3UU2oeHPFSQRHxJ4I1wB/3HiDwh4iM9lMHMLh13pGI5Vll/wAMSvvT9kn/AIKRftwfsH3Oszfsj/tIfEP4Q6fr0gvNV0DQrrSdU8K6tfxqqpq+u+BvFFn4r8JTXChyhll09XOI8uI18sgH+p7/AMF/P28vAf7Dn/BN34/ajq+u6dbfFH45eBPFfwM+CnhhpwNR8Q+LfiLo0/hrWtZjUSBho3gvwvr+seLLmRjKCttBGqRtJGU/xzq+qf2ov2wv2mf2y/iAfid+0/8AHDxz8cPGcFnJp1jrHjXUEddB0pZAx0jw/oEccPhvwzC8gE4g8MW0SscSOJHB2/K1ABRRRQAV/UD/AMGiP/KY/wAFf9kA+Of/AKY9Dr+X6v62/wDgzf8AhhrXi3/gqJ40+JEMAOjfCn9mj4g3WoXbEjZqvjzXfC/hnQlK8hhJF/bwz1BUrzQB/qO1/lm/8HkH/KVrwv8A9mq/Cb/1JPiLX+plX+U//wAHffiuLXP+Cvmp6TbXG5vBf7OfwT0K72j5RqEg8U+JOmOGSHxGmeuMMOeKAP5Z6KKKACiiigAooooAKKKKACiiigAooooAKKKKACiiigAooooAKKKKACiiigAooooAKKKKACiiigAooooAKKKKACiiigAooooAKKKKACiiigD9af8Aghx+0HZ/sx/8FWv2KviprF2+naAfjJo3gPxPeqpfZofxat5/h5cllXnYi+JFmlP3VjR2YhVJr/aPr/AasdQudMurfUNOnns9QtLlLy0urVyGtGU5DJxnep285AwApyCRX+0l/wAEcP26NB/4KG/8E+PgD+0FHqUN14/Hhex8B/GG0a8D6jp/xX8BJHoPiM3W5VCnxTJCviuA7h/o3iOOMNIxcoAfkZ/wdlf8E6vEX7Xf7EPh79o74ZaBPrvxY/Y81DWvFmo6Vptr5mp698EPEkMR+IayghZy3g86Jofi6NQrBLSDxRgIWVT/AJZtf78t5aW19aTWGoQ293a3ds1pc2t0q7b1WXayHJIKsC3QEhjkbSM1/Bf/AMFd/wDg0p8S+NPiF4u/aD/4Jm3fhTTIfE93qOueJf2XfGN9a+GdL07VGm84v8I9f8hPDcOhMY2K+EvFssDQiREtr51MkKAH+fVRX7N6h/wb4f8ABZbSbu4tZv2BfjLdG2OPtdg3grUdPdSAdySp4naNlOepIbgkIRgmh/xD/wD/AAWS/wCkfHx0/wDAHw//APNNQB+OdFfsZ/xD/wD/AAWS/wCkfHx0/wDAHw//APNNR/xD/wD/AAWS/wCkfHx0/wDAHw//APNNQB+OdFfsZ/xD/wD/AAWS/wCkfHx0/wDAHw//APNNR/xD/wD/AAWS/wCkfHx0/wDAHw//APNNQB+OdFfsZ/xD/wD/AAWS/wCkfHx0/wDAHw//APNNR/xD/wD/AAWS/wCkfHx0/wDAHw//APNNQB+OdFfsZ/xD/wD/AAWS/wCkfHx0/wDAHw//APNNR/xD/wD/AAWS/wCkfHx0/wDAHw//APNNQB+OdFfsZ/xD/wD/AAWS/wCkfHx0/wDAHw//APNNR/xD/wD/AAWS/wCkfHx0/wDAHw//APNNQB+OdFfsZ/xD/wD/AAWS/wCkfHx0/wDAHw//APNNR/xD/wD/AAWS/wCkfHx0/wDAHw//APNNQB+OdFfsZ/xD/wD/AAWS/wCkfHx0/wDAHw//APNNV/T/APg3w/4LLatd29rD+wL8ZbU3Jx9rv28Fadp6KATueV/E6xqox1BLcglAMkAH4yV/qa/8GnX/AATs8Q/sg/sPax+0b8TtCn0L4t/tjX+j+LNP0jUrQpquhfA7wzFK3w5RR5nm48XtrWv+MSNmGtde8LZUFWQfnB/wSM/4NKfE3gz4heEv2gv+CmV34T1O38LXWm634Z/Ze8G6taeJdM1HVUmE6v8AFzxB5D+HJtBBkUt4S8ITTvMI3iuL1Rshb+8+ztLaxtIbDT4be0tbS2W0trW1VdtkqrtVBggBVAXqASwydxOaANOv8XD/AILl/tBW/wC05/wVa/bU+KmkXj6h4fHxj1nwF4YvSpTfoXwkt7f4d2mxW/gI8OPMp6MjoyllYGv9Tz/gsh+3PpH/AAT1/wCCe/x8/aDk1CC28f8A/CMX3gL4PWZu9kmo/Ffx4sugeGzCQh3nwrJK/iubIXNv4fmjGxiAf8W69v7vU7y41G+ubi6v7y4e7vLq6PmPd37uXYuQBgkyMSWP8RGFXaAAZdFFFABRRRQAUUUUAFFFFABRRRQAUUUUAFFFFABRRRQAUUUUAFFFFABRRRQAUUUUAFFFFABRRRQAUUUUAFFFFABRRRQAUUUUAFFFFABRRRQAV/ST/wAG5n/BYb/h2Z+07N8PPjDqtwv7If7Q13pOhfEeTeHj+HXjJJCvhn4txRKTD5UJMfhjx2ZAWl8GyfaWleXwjZqv821FAH++h4f8QaL4q0bTfEHhvUrDXNC16w03WtF1rSb2O+07U9M1eLzINV0ueMyIYZY5TKjqShQ7s5Zweor/ACl/+CLH/ByZ8bv+CcNpof7P3x70vWfj1+yRbXCWOg6NHqIHj/4OqJos/wDCB6w6yQ634aB+d/CF0yQoklwdPniSREb/AEN/2Rf+CuP/AATw/bg0Cw1n4A/tR/DHUtaurNnvfh34w8R6P4I+KWjRqWRTrHgHxLc2/iSPLo3zqJbeTGVmcliAD9MaKz4L+wuIvOtr22nhP/LQXaso5PBOWx/wIg1P9ot/+e0H5r/8VQBZoqt9ot/+e0H5r/8AFUfaLf8A57Qfmv8A8VQBZoqt9ot/+e0H5r/8VR9ot/8AntB+a/8AxVAFmiq32i3/AOe0H5r/APFUfaLf/ntB+a//ABVAFmiq32i3/wCe0H5r/wDFUfaLf/ntB+a//FUAWaKrfaLf/ntB+a//ABVH2i3/AOe0H5r/APFUAWaKrfaLf/ntB+a//FUfaLf/AJ7Qfmv/AMVQBZoqt9ot/wDntB+a/wDxVQT39hbxedc3ttBCP+Whu1VTyOAcrn/gJJoA0K5fxB4g0Xwro2p+IPEmpWGh6FoNhqWta1rWrXsdjp2maZpEXmT6rqk8hjQQxRxCV3YhAg3ZyqAfnn+1n/wVw/4J2/sT6FqOq/Hz9qD4YaRrdpaj7L8P/COvW3jb4qakS6I2naL4D8LGbxIW37GUzpbxo3zSPGAtf55f/Baf/g5L+N//AAUetNb+APwDsNb+Av7JFzO9hrminUVPj74xKZZcHx5rEaxxaJ4ZziRPCFozwuqW5v5pkjkRQDz7/g41/wCCw4/4KZftORfDb4M6vc3H7If7PN5q2h/DeQNsi+I3jOSUL4m+LjxOxiEU7eZ4W8BmIKyeDka4jcTeL7pT/NhRRQAUUUUAFFFFABRRRQAUUUUAFFFFABRRRQAUUUUAFFFFABRRRQAUUUUAFFFFABRRRQAUUUUAFFFFABRRRQAUUUUAFFFFABRRRQAUUUUAFFFFABRRRQAVaguJ4JvPhmME4JwwypGfqCMfUcfrVWigD0O3+JvxGsovItvH3jm3tz/DbeKtbiXB5wCsyd+wwO1S/wDC3fij/wBFM+In/hb+Iv8A5LrzeigD0j/hbvxR/wCimfET/wALfxF/8l0f8Ld+KP8A0Uz4if8Ahb+Iv/kuvN6KAPSP+Fu/FH/opnxE/wDC38Rf/JdH/C3fij/0Uz4if+Fv4i/+S683ooA9I/4W78Uf+imfET/wt/EX/wAl0f8AC3fij/0Uz4if+Fv4i/8AkuvN6KAPSP8AhbvxR/6KZ8RP/C38Rf8AyXR/wt34o/8ARTPiJ/4W/iL/AOS683ooA9I/4W78Uf8AopnxE/8AC38Rf/JdH/C3fij/ANFM+In/AIW/iL/5LrzeigD0j/hbvxR/6KZ8RP8Awt/EX/yXR/wt34o/9FM+In/hb+Iv/kuvN6KAPSP+Fu/FH/opnxE/8LfxF/8AJdRXHxN+I17F5Fz4+8c3FuP4bnxVrcq4HOCWmfv2OR2rzyigC1PcTzzefNMZ5yRljlicfQAY+g5/WqtFFABRRRQAUUUUAFFFFABRRRQAUUUUAFFFFABRRRQAUUUUAFFFFABRRRQAUUUUAFFFFABRRRQAUUUUAFFFFABRRRQAUUUUAFFFFABRRRQAUUUUAFFFFABRRRQAUUUUAFFFFABRRRQAUUUUAFFFFABRRRQAUUUUAFFFFABRRRQAUUUUAFFFFABRRRQAUUUUAFFFFABRRRQAUUUUAFFFFABRRRQAUUUUAFFFFABRRRQAUUUUAFFFFABRRRQAUUUUAFFFFABRRRQAUUUUAFFFFABRRRQAUUUUAFFFFABRRRQAUUUUAFFFFABRRRQAUUUUAFFFFABRRRQAUUUUAFFFFABRRRQAUUUUAFFFFABRRRQAUUUUAFFFFABRRRQAUUUUAFFFFABRRRQAUUUUAFFFFABRRRQAUUUUAFFFFABRRRQAUUUUAFFFFABRRRQAUUUUAFFFFABRRRQAUUUUAFFFFABRRRQAUUUUAFFFFABRRRQAUUUUAFFFFABRRRQAUUUUAFFFFABRRRQAUUUUAFFFFABRRRQAUUUUAFFFFABRRRQAUUUUAFFFFABRRRQAUUUUAFFFFABRRRQAUUUUAFFFFABRRRQAUUUUAFFFFABRRRQAUUUUAFFFFABRRRQAUUUUAFFFFABRRRQAUUUUAFFFFABRRRQAUUUUAFFFFABRRRQAUUUUAFFFFABRRRQAUUUUAFFFFABRRRQAUUUUAFFFFABRRRQAUUUUAFFFFABRRRQB/9k=;" vertex="1" parent="1">
          <mxGeometry x="1143.47" y="340" width="100" height="100" as="geometry" />
        </mxCell>
        <mxCell id="5N7-zpOXgMY-O348T0EB-3" value="" style="shape=image;verticalLabelPosition=bottom;labelBackgroundColor=default;verticalAlign=top;aspect=fixed;imageAspect=0;image=https://www.lovebox.mn/logo.png;" vertex="1" parent="1">
          <mxGeometry x="1208.8899999999999" y="700" width="68.51" height="68.74" as="geometry" />
        </mxCell>
        <mxCell id="5N7-zpOXgMY-O348T0EB-4" value="" style="shape=image;verticalLabelPosition=bottom;labelBackgroundColor=default;verticalAlign=top;aspect=fixed;imageAspect=0;image=https://www.mcargo.mn/logo.png;" vertex="1" parent="1">
          <mxGeometry x="1398.8899999999999" y="700" width="60.92" height="60" as="geometry" />
        </mxCell>
        <mxCell id="5N7-zpOXgMY-O348T0EB-5" value="&lt;font style=&quot;font-size: 36px;&quot;&gt;IMEX&lt;/font&gt;" style="text;html=1;strokeColor=none;fillColor=none;align=center;verticalAlign=middle;whiteSpace=wrap;rounded=0;" vertex="1" parent="1">
          <mxGeometry x="998.8899999999999" y="709.37" width="80" height="40.63" as="geometry" />
        </mxCell>
        <mxCell id="5N7-zpOXgMY-O348T0EB-26" style="edgeStyle=orthogonalEdgeStyle;rounded=0;orthogonalLoop=1;jettySize=auto;html=1;exitX=0;exitY=0.5;exitDx=0;exitDy=0;" edge="1" parent="1" source="5N7-zpOXgMY-O348T0EB-14" target="5N7-zpOXgMY-O348T0EB-6">
          <mxGeometry relative="1" as="geometry">
            <mxPoint x="993.5699999999999" y="570" as="sourcePoint" />
          </mxGeometry>
        </mxCell>
        <mxCell id="5N7-zpOXgMY-O348T0EB-27" style="edgeStyle=orthogonalEdgeStyle;rounded=0;orthogonalLoop=1;jettySize=auto;html=1;" edge="1" parent="1" source="5N7-zpOXgMY-O348T0EB-14">
          <mxGeometry relative="1" as="geometry">
            <mxPoint x="1193.47" y="630" as="targetPoint" />
            <mxPoint x="1193.4647368421054" y="570" as="sourcePoint" />
          </mxGeometry>
        </mxCell>
        <mxCell id="5N7-zpOXgMY-O348T0EB-28" style="edgeStyle=orthogonalEdgeStyle;rounded=0;orthogonalLoop=1;jettySize=auto;html=1;entryX=0.5;entryY=0;entryDx=0;entryDy=0;exitX=1;exitY=0.5;exitDx=0;exitDy=0;" edge="1" parent="1" source="5N7-zpOXgMY-O348T0EB-14" target="5N7-zpOXgMY-O348T0EB-8">
          <mxGeometry relative="1" as="geometry">
            <mxPoint x="1391.0449999999998" y="570" as="sourcePoint" />
          </mxGeometry>
        </mxCell>
        <mxCell id="5N7-zpOXgMY-O348T0EB-22" value="&lt;font style=&quot;font-size: 18px;&quot;&gt;Data&lt;/font&gt;" style="shape=cylinder3;whiteSpace=wrap;html=1;boundedLbl=1;backgroundOutline=1;size=15;" vertex="1" parent="1">
          <mxGeometry x="1100" y="180" width="65.14" height="86.85" as="geometry" />
        </mxCell>
        <mxCell id="5N7-zpOXgMY-O348T0EB-32" value="Cybinon" style="shape=umlActor;verticalLabelPosition=bottom;verticalAlign=top;html=1;outlineConnect=0;" vertex="1" parent="1">
          <mxGeometry x="1275" y="200" width="30" height="60" as="geometry" />
        </mxCell>
        <mxCell id="5N7-zpOXgMY-O348T0EB-33" value="MX" style="shape=umlActor;verticalLabelPosition=bottom;verticalAlign=top;html=1;outlineConnect=0;" vertex="1" parent="1">
          <mxGeometry x="1249.9999999999998" y="410" width="30" height="60" as="geometry" />
        </mxCell>
        <mxCell id="5N7-zpOXgMY-O348T0EB-34" value="" style="endArrow=none;html=1;rounded=0;fillColor=#fff2cc;strokeColor=#d6b656;" edge="1" parent="1">
          <mxGeometry width="50" height="50" relative="1" as="geometry">
            <mxPoint x="720" y="300" as="sourcePoint" />
            <mxPoint x="1700" y="300" as="targetPoint" />
          </mxGeometry>
        </mxCell>
        <mxCell id="5N7-zpOXgMY-O348T0EB-35" value="Worker" style="shape=umlActor;verticalLabelPosition=bottom;verticalAlign=top;html=1;outlineConnect=0;" vertex="1" parent="1">
          <mxGeometry x="1039.9999999999998" y="580" width="30" height="60" as="geometry" />
        </mxCell>
        <mxCell id="5N7-zpOXgMY-O348T0EB-36" value="Worker" style="shape=umlActor;verticalLabelPosition=bottom;verticalAlign=top;html=1;outlineConnect=0;" vertex="1" parent="1">
          <mxGeometry x="1228.1399999999999" y="580" width="30" height="60" as="geometry" />
        </mxCell>
        <mxCell id="5N7-zpOXgMY-O348T0EB-37" value="Worker" style="shape=umlActor;verticalLabelPosition=bottom;verticalAlign=top;html=1;outlineConnect=0;" vertex="1" parent="1">
          <mxGeometry x="1414.35" y="580" width="30" height="60" as="geometry" />
        </mxCell>
      </root>
    </mxGraphModel>
  </diagram>
</mxfile>
